<svg width="43" height="43" viewBox="0 0 43 43" fill="none" xmlns="http://www.w3.org/2000/svg">
<path d="M26.6696 13.9375C27.2498 12.9326 28.2054 12.1994 29.3262 11.8991C30.4469 11.5988 31.6411 11.756 32.646 12.3361C33.6509 12.9163 34.3841 13.8719 34.6844 14.9927C34.9847 16.1135 34.8275 17.3076 34.2474 18.3125C33.6672 19.3174 32.7116 20.0506 31.5908 20.3509C30.47 20.6512 29.2759 20.494 28.271 19.9139C27.2661 19.3337 26.5329 18.3781 26.2326 17.2573C25.9323 16.1365 26.0895 14.9424 26.6696 13.9375L26.6696 13.9375Z" stroke="#F3AF1C" stroke-width="2"/>
<path d="M8.75264 13.9375C9.3328 12.9326 10.2884 12.1994 11.4092 11.8991C12.53 11.5988 13.7241 11.756 14.729 12.3361C15.7339 12.9163 16.4671 13.8719 16.7674 14.9927C17.0677 16.1135 16.9105 17.3076 16.3304 18.3125C15.7502 19.3174 14.7946 20.0506 13.6738 20.3509C12.5531 20.6512 11.3589 20.494 10.354 19.9139C9.34914 19.3337 8.61589 18.3781 8.31558 17.2573C8.01526 16.1365 8.17248 14.9424 8.75264 13.9375L8.75264 13.9375Z" stroke="white" stroke-width="2"/>
<path d="M30.2464 32.25L29.266 32.4475L29.4277 33.25H30.2464V32.25ZM37.3906 31.1431L36.4251 31.4034V31.4034L37.3906 31.1431ZM26.4824 26.3564L25.8776 25.5601L24.721 26.4385L25.9543 27.2056L26.4824 26.3564ZM36.4923 31.25H30.2464V33.25H36.4923V31.25ZM36.4251 31.4034C36.422 31.3917 36.4193 31.3678 36.426 31.3386C36.4322 31.3113 36.4441 31.2904 36.4554 31.2768C36.4778 31.2496 36.4974 31.25 36.4923 31.25V33.25C37.6683 33.25 38.7052 32.1775 38.3562 30.8828L36.4251 31.4034ZM30.4585 26.0834C32.4824 26.0834 33.8139 26.9349 34.7273 28.0074C35.668 29.1118 36.1726 30.4669 36.4251 31.4034L38.3562 30.8828C38.0664 29.808 37.4616 28.1332 36.2499 26.7106C35.0111 25.256 33.1477 24.0834 30.4585 24.0834V26.0834ZM27.0873 27.1527C27.9116 26.5266 28.9963 26.0834 30.4585 26.0834V24.0834C28.5524 24.0834 27.0443 24.6739 25.8776 25.5601L27.0873 27.1527ZM25.9543 27.2056C28.0889 28.5332 28.9366 30.8117 29.266 32.4475L31.2267 32.0526C30.8535 30.1996 29.8345 27.2636 27.0106 25.5072L25.9543 27.2056Z" fill="#F3AF1C"/>
<path d="M16.5175 26.3564L17.0457 27.2056L18.279 26.4385L17.1224 25.5601L16.5175 26.3564ZM5.60932 31.1431L4.6438 30.8828L5.60932 31.1431ZM12.7535 32.25V33.25H13.5722L13.7339 32.4475L12.7535 32.25ZM12.5415 26.0834C14.0037 26.0834 15.0883 26.5266 15.9127 27.1527L17.1224 25.5601C15.9557 24.6739 14.4475 24.0834 12.5415 24.0834V26.0834ZM6.57485 31.4034C6.82733 30.4669 7.33201 29.1118 8.27264 28.0074C9.18607 26.9349 10.5176 26.0834 12.5415 26.0834V24.0834C9.8523 24.0834 7.98887 25.256 6.75004 26.7106C5.53841 28.1332 4.93356 29.808 4.6438 30.8828L6.57485 31.4034ZM6.50761 31.25C6.5026 31.25 6.52214 31.2496 6.54457 31.2768C6.5559 31.2904 6.56776 31.3113 6.574 31.3386C6.58065 31.3678 6.57799 31.3917 6.57485 31.4034L4.6438 30.8828C4.29474 32.1775 5.33162 33.25 6.50761 33.25V31.25ZM12.7535 31.25H6.50761V33.25H12.7535V31.25ZM13.7339 32.4475C14.0633 30.8117 14.911 28.5332 17.0457 27.2056L15.9894 25.5072C13.1654 27.2636 12.1464 30.1996 11.7732 32.0526L13.7339 32.4475Z" fill="white"/>
<path d="M21.4998 25.0834C28.6039 25.0834 30.0744 30.717 30.3787 33.0492C30.4502 33.5968 30.0105 34.0417 29.4582 34.0417H13.5415C12.9892 34.0417 12.5495 33.5968 12.6209 33.0492C12.9253 30.717 14.3958 25.0834 21.4998 25.0834Z" stroke="white" stroke-width="2" stroke-linecap="round"/>
<circle cx="21.5002" cy="14.3333" r="6.16667" stroke="white" stroke-width="2" stroke-linecap="round"/>
</svg>
