<svg width="68" height="68" viewBox="0 0 68 68" fill="none" xmlns="http://www.w3.org/2000/svg">
<path fill-rule="evenodd" clip-rule="evenodd" d="M26.4168 5.58337C21.1701 5.58337 16.9168 9.83668 16.9168 15.0834V32.75C16.9168 34.1564 16.4606 35.5249 15.6168 36.65L9.91677 44.25C8.6807 45.8981 9.85666 48.25 11.9168 48.25H56.0834C58.1436 48.25 59.3195 45.8981 58.0834 44.25L52.3834 36.65C51.5396 35.5249 51.0834 34.1564 51.0834 32.75V25.7125C51.0834 25.5426 51.0834 25.4576 51.0307 25.4127C50.978 25.3678 50.8914 25.3817 50.7183 25.4096C50.3488 25.4691 49.9697 25.5 49.5834 25.5C49.1971 25.5 48.8181 25.4691 48.4486 25.4096C48.2755 25.3817 48.1889 25.3678 48.1362 25.4127C48.0834 25.4576 48.0834 25.5426 48.0834 25.7125V32.75C48.0834 34.8056 48.7501 36.8056 49.9834 38.45L54.7234 44.77C54.8805 44.9795 54.9591 45.0842 54.9176 45.1671C54.8761 45.25 54.7452 45.25 54.4834 45.25H13.5168C13.255 45.25 13.1241 45.25 13.0826 45.1671C13.0411 45.0842 13.1197 44.9795 13.2768 44.77L18.0168 38.45C19.2501 36.8056 19.9168 34.8056 19.9168 32.75V15.0834C19.9168 11.4935 22.8269 8.58337 26.4168 8.58337H41.5834C43.8685 8.58337 45.8782 9.76252 47.0372 11.5455C47.1028 11.6464 47.1355 11.6968 47.1834 11.7138C47.2314 11.7308 47.2884 11.7123 47.4025 11.6754C48.0895 11.4534 48.8224 11.3334 49.5834 11.3334C49.6637 11.3334 49.7436 11.3347 49.8233 11.3374C50.0565 11.3451 50.1731 11.349 50.2192 11.2777C50.2653 11.2065 50.2167 11.1073 50.1196 10.9091C48.5743 7.75505 45.3325 5.58337 41.5834 5.58337H26.4168Z" fill="#0F113C"/>
<circle cx="49.5834" cy="18.4166" r="4.25" fill="#2EB33B"/>
<path d="M27.1581 52.8333C27.5616 54.3395 28.4509 55.6704 29.688 56.6196C30.925 57.5689 32.4408 58.0834 34 58.0834C35.5593 58.0834 37.075 57.5689 38.3121 56.6196C39.5492 55.6704 40.4384 54.3395 40.842 52.8333" stroke="#F3AF1C" stroke-width="3" stroke-linecap="round"/>
</svg>
