<svg width="36" height="36" viewBox="0 0 36 36" fill="none" xmlns="http://www.w3.org/2000/svg">
<path d="M5.5 12.5C5.5 10.5861 5.50212 9.25129 5.63753 8.24416C5.76907 7.26579 6.00966 6.7477 6.37868 6.37868C6.7477 6.00966 7.26579 5.76907 8.24416 5.63753C9.25129 5.50212 10.5861 5.5 12.5 5.5H23.5C25.4139 5.5 26.7487 5.50212 27.7558 5.63753C28.7342 5.76907 29.2523 6.00966 29.6213 6.37868L30.3112 5.68882L29.6213 6.37868C29.9903 6.7477 30.2309 7.26579 30.3625 8.24416C30.4979 9.25129 30.5 10.5861 30.5 12.5V23.5C30.5 25.4139 30.4979 26.7487 30.3625 27.7558C30.2309 28.7342 29.9903 29.2523 29.6213 29.6213C29.2523 29.9903 28.7342 30.2309 27.7558 30.3625C26.7487 30.4979 25.4139 30.5 23.5 30.5H12.5C10.5861 30.5 9.25129 30.4979 8.24416 30.3625C7.26579 30.2309 6.7477 29.9903 6.37868 29.6213L5.68882 30.3112L6.37868 29.6213C6.00966 29.2523 5.76907 28.7342 5.63753 27.7558C5.50212 26.7487 5.5 25.4139 5.5 23.5V12.5Z" stroke="white" stroke-width="2"/>
<path d="M18 12L18 24" stroke="#F3AF1C" stroke-width="2" stroke-linejoin="round"/>
<path d="M24 18L12 18" stroke="#F3AF1C" stroke-width="2" stroke-linejoin="round"/>
</svg>
