<svg width="36" height="36" viewBox="0 0 36 36" fill="none" xmlns="http://www.w3.org/2000/svg">
<path d="M28.9888 8.66658L29.8203 8.11101V8.11101L28.9888 8.66658ZM28.9888 24.3334L28.1573 23.7778H28.1573L28.9888 24.3334ZM27.3334 25.9888L26.7778 25.1573V25.1573L27.3334 25.9888ZM21 26.998L20.9956 25.998C20.4451 26.0004 20 26.4474 20 26.998H21ZM21 27L21.8944 27.4472C21.9639 27.3084 22 27.1552 22 27H21ZM15 27H14C14 27.1552 14.0361 27.3084 14.1056 27.4472L15 27ZM15 26.998H16C16 26.4474 15.5549 26.0004 15.0044 25.998L15 26.998ZM8.66658 25.9888L8.11101 26.8203L8.11101 26.8203L8.66658 25.9888ZM7.01118 24.3334L7.84265 23.7778H7.84265L7.01118 24.3334ZM7.01118 8.66658L6.17971 8.11101L7.01118 8.66658ZM8.66658 7.01118L8.11101 6.17971L8.66658 7.01118ZM27.3334 7.01118L26.7778 7.84265V7.84265L27.3334 7.01118ZM31 16.5C31 14.4141 31.0012 12.7744 30.8685 11.4696C30.734 10.148 30.454 9.05938 29.8203 8.11101L28.1573 9.22215C28.5349 9.78712 28.7604 10.5085 28.8787 11.672C28.9988 12.8521 29 14.3725 29 16.5H31ZM29.8203 24.889C30.454 23.9406 30.734 22.852 30.8685 21.5304C31.0012 20.2256 31 18.5859 31 16.5H29C29 18.6275 28.9988 20.1479 28.8787 21.328C28.7604 22.4915 28.5349 23.2129 28.1573 23.7778L29.8203 24.889ZM27.889 26.8203C28.6533 26.3096 29.3096 25.6533 29.8203 24.889L28.1573 23.7778C27.7926 24.3238 27.3238 24.7926 26.7778 25.1573L27.889 26.8203ZM21.0044 27.9979C22.6179 27.9909 23.9334 27.9604 25.0216 27.8099C26.1259 27.6573 27.0607 27.3738 27.889 26.8203L26.7778 25.1573C26.2842 25.4872 25.6705 25.7012 24.7477 25.8288C23.8089 25.9585 22.6187 25.9909 20.9956 25.998L21.0044 27.9979ZM22 27V26.998H20V27H22ZM19.7889 31.6584L21.8944 27.4472L20.1056 26.5528L18 30.7639L19.7889 31.6584ZM16.2111 31.6584C16.9482 33.1325 19.0518 33.1325 19.7889 31.6584L18 30.7639L18 30.7639L16.2111 31.6584ZM14.1056 27.4472L16.2111 31.6584L18 30.7639L15.8944 26.5528L14.1056 27.4472ZM14 26.998V27H16V26.998H14ZM8.11101 26.8203C8.93934 27.3738 9.87412 27.6573 10.9784 27.8099C12.0666 27.9604 13.3821 27.9909 14.9956 27.9979L15.0044 25.998C13.3813 25.9909 12.1911 25.9585 11.2523 25.8288C10.3295 25.7012 9.71585 25.4872 9.22215 25.1573L8.11101 26.8203ZM6.17971 24.889C6.69042 25.6533 7.34668 26.3096 8.11101 26.8203L9.22215 25.1573C8.6762 24.7926 8.20744 24.3238 7.84265 23.7778L6.17971 24.889ZM5 16.5C5 18.5859 4.99879 20.2256 5.13153 21.5304C5.26597 22.852 5.54603 23.9406 6.17971 24.889L7.84265 23.7778C7.46515 23.2129 7.23962 22.4915 7.12126 21.328C7.00121 20.1479 7 18.6275 7 16.5H5ZM6.17971 8.11101C5.54603 9.05938 5.26597 10.148 5.13153 11.4696C4.99879 12.7744 5 14.4141 5 16.5H7C7 14.3725 7.00121 12.8521 7.12126 11.672C7.23962 10.5085 7.46515 9.78712 7.84265 9.22215L6.17971 8.11101ZM8.11101 6.17971C7.34668 6.69042 6.69042 7.34668 6.17971 8.11101L7.84265 9.22215C8.20744 8.6762 8.6762 8.20744 9.22215 7.84265L8.11101 6.17971ZM16.5 5C14.4141 5 12.7744 4.99879 11.4696 5.13153C10.148 5.26597 9.05938 5.54603 8.11101 6.17971L9.22215 7.84265C9.78712 7.46515 10.5085 7.23962 11.672 7.12126C12.8521 7.00121 14.3725 7 16.5 7V5ZM19.5 5H16.5V7H19.5V5ZM27.889 6.17971C26.9406 5.54603 25.852 5.26597 24.5304 5.13153C23.2256 4.99879 21.5859 5 19.5 5V7C21.6275 7 23.1479 7.00121 24.328 7.12126C25.4915 7.23962 26.2129 7.46515 26.7778 7.84265L27.889 6.17971ZM29.8203 8.11101C29.3096 7.34668 28.6533 6.69042 27.889 6.17971L26.7778 7.84265C27.3238 8.20744 27.7926 8.6762 28.1573 9.22215L29.8203 8.11101Z" fill="white"/>
<circle cx="24" cy="16.5" r="1.5" fill="#F3AF1C" stroke="#0F113C" stroke-linecap="round"/>
<circle cx="18" cy="16.5" r="1.5" fill="#F3AF1C" stroke="#0F113C" stroke-linecap="round"/>
<path d="M13.5 16.5C13.5 17.3284 12.8284 18 12 18C11.1716 18 10.5 17.3284 10.5 16.5C10.5 15.6716 11.1716 15 12 15C12.8284 15 13.5 15.6716 13.5 16.5Z" fill="#F3AF1C" stroke="#0F113C" stroke-linecap="round"/>
</svg>
