<svg width="30" height="30" viewBox="0 0 41 36" fill="none" xmlns="http://www.w3.org/2000/svg">
<path fill-rule="evenodd" clip-rule="evenodd" d="M35.9509 9H5.65576V13.5C6.933 13.5 7.57162 13.5 8.04412 13.781C8.33087 13.9515 8.57041 14.191 8.74092 14.4778C9.02189 14.9503 9.02189 15.5889 9.02189 16.8661V25.5C9.02189 28.3284 9.02189 29.7426 9.90057 30.6213C10.7793 31.5 12.1935 31.5 15.0219 31.5H26.5848C29.4132 31.5 30.8275 31.5 31.7061 30.6213C32.5848 29.7426 32.5848 28.3284 32.5848 25.5V16.8661C32.5848 15.5889 32.5848 14.9503 32.8658 14.4778C33.0363 14.191 33.2758 13.9515 33.5626 13.781C34.0351 13.5 34.6737 13.5 35.9509 13.5V9ZM17.5957 16.5C17.5957 15.9477 17.148 15.5 16.5957 15.5C16.0434 15.5 15.5957 15.9477 15.5957 16.5V24C15.5957 24.5523 16.0434 25 16.5957 25C17.148 25 17.5957 24.5523 17.5957 24V16.5ZM26.011 16.5C26.011 15.9477 25.5633 15.5 25.011 15.5C24.4587 15.5 24.011 15.9477 24.011 16.5V24C24.011 24.5523 24.4587 25 25.011 25C25.5633 25 26.011 24.5523 26.011 24V16.5Z" fill="#F12727"/>
<path d="M17.5519 5.05589C17.7437 4.89641 18.1663 4.75549 18.7541 4.65499C19.342 4.55448 20.0623 4.5 20.8033 4.5C21.5443 4.5 22.2646 4.55448 22.8525 4.65498C23.4403 4.75549 23.8629 4.89641 24.0547 5.05589" stroke="#F12727" stroke-width="2" stroke-linecap="round"/>
</svg>
