<svg width="135" height="257" viewBox="0 0 135 257" fill="none" xmlns="http://www.w3.org/2000/svg">
<mask id="mask0_212_1918" style="mask-type:luminance" maskUnits="userSpaceOnUse" x="15" y="22" width="204" height="213">
<path d="M218.426 153.125C223.548 96.1766 182.387 39.0624 126.491 25.5565C70.594 12.0507 21.1288 47.2676 16.007 104.216C10.8851 161.164 52.0461 218.278 107.943 231.784C163.839 245.29 213.304 210.073 218.426 153.125Z" fill="white"/>
</mask>
<g mask="url(#mask0_212_1918)">
<path d="M43.8592 22.3944C43.9252 21.7057 43.4076 21.0108 42.703 20.8424C41.9983 20.674 41.3736 21.0959 41.3076 21.7846C41.2415 22.4734 41.7592 23.1683 42.4638 23.3367C43.1684 23.505 43.7931 23.0832 43.8592 22.3944Z" fill="#6D6D6D"/>
<path d="M64.9102 26.904C64.9763 26.2152 64.4586 25.5203 63.754 25.3519C63.0494 25.1835 62.4246 25.6054 62.3586 26.2941C62.2926 26.9829 62.8102 27.6778 63.5148 27.8462C64.2194 28.0146 64.8442 27.5927 64.9102 26.904Z" fill="#6D6D6D"/>
<path d="M85.9754 31.2958C86.0414 30.6071 85.5238 29.9122 84.8192 29.7438C84.1146 29.5754 83.4898 29.9972 83.4238 30.686C83.3577 31.3748 83.8754 32.0696 84.58 32.238C85.2846 32.4064 85.9094 31.9846 85.9754 31.2958Z" fill="#6D6D6D"/>
<path d="M106.543 34.7442C106.049 34.1427 105.213 33.9391 104.675 34.2896C104.138 34.64 104.103 35.4118 104.597 36.0133C105.091 36.6149 105.927 36.8184 106.464 36.468C107.002 36.1175 107.037 35.3458 106.543 34.7442Z" fill="#6D6D6D"/>
<path d="M21.2527 34.4424C21.1929 35.0657 20.6226 35.567 19.8568 35.3839C19.2187 35.2314 18.6284 34.5802 18.7001 33.8322C18.7599 33.2089 19.3302 32.7077 20.096 32.8907C20.7341 33.0433 21.3244 33.6944 21.2527 34.4424Z" fill="#6D6D6D"/>
<path d="M41.948 37.878C41.454 37.2765 40.6178 37.0729 40.0802 37.4232C39.5426 37.7736 39.5073 38.5452 40.0013 39.1467C40.4953 39.7482 41.3315 39.9518 41.8691 39.6015C42.4067 39.2511 42.442 38.4795 41.948 37.878Z" fill="#6D6D6D"/>
<path d="M63.2341 43.3135C63.3002 42.625 62.7823 41.9303 62.0774 41.7618C61.3725 41.5933 60.7476 42.0149 60.6816 42.7033C60.6155 43.3918 61.1334 44.0865 61.8383 44.255C62.5432 44.4235 63.1681 44.002 63.2341 43.3135Z" fill="#6D6D6D"/>
<path d="M83.9615 46.7642C83.4675 46.1627 82.6312 45.9591 82.0936 46.3095C81.5561 46.6598 81.5207 47.4315 82.0147 48.033C82.5087 48.6345 83.345 48.838 83.8826 48.4877C84.4201 48.1373 84.4555 47.3657 83.9615 46.7642Z" fill="#6D6D6D"/>
<path d="M105.23 52.0669C105.17 52.6902 104.6 53.1915 103.834 53.0085C103.196 52.8559 102.605 52.2047 102.677 51.4568C102.737 50.8335 103.307 50.3322 104.073 50.5152C104.827 50.8229 105.29 51.4436 105.23 52.0669Z" fill="#6D6D6D"/>
<path d="M19.5763 50.8521C19.5165 51.4752 18.946 51.9763 18.18 51.7933C17.5416 51.6408 16.9512 50.9898 17.023 50.242C17.0828 49.6189 17.6533 49.1177 18.4193 49.3007C19.1853 49.4838 19.6481 50.1043 19.5763 50.8521Z" fill="#6D6D6D"/>
<path d="M40.6412 55.2439C40.5814 55.867 40.0109 56.3682 39.2449 56.1852C38.6066 56.0326 38.016 55.3816 38.0878 54.6338C38.1477 54.0107 38.7182 53.5096 39.4842 53.6926C40.1225 53.8451 40.7011 54.6208 40.6412 55.2439Z" fill="#6D6D6D"/>
<path d="M61.6925 59.7534C61.7586 59.0651 61.2406 58.3706 60.5355 58.2021C59.8305 58.0336 59.2053 58.4551 59.1392 59.1434C59.0731 59.8317 59.5911 60.5262 60.2962 60.6947C61.0013 60.8631 61.6264 60.4417 61.6925 59.7534Z" fill="#6D6D6D"/>
<path d="M82.6228 64.115C82.563 64.7381 81.9925 65.2393 81.2265 65.0563C80.5882 64.9037 79.9977 64.2527 80.0695 63.5049C80.1294 62.8818 80.6999 62.3807 81.4659 62.5637C82.2318 62.7467 82.6827 63.4919 82.6228 64.115Z" fill="#6D6D6D"/>
<path d="M103.688 68.5068C103.628 69.13 103.058 69.6311 102.292 69.4481C101.653 69.2956 101.063 68.6446 101.135 67.8968C101.195 67.2736 101.765 66.7725 102.531 66.9555C103.157 67.2327 103.748 67.8837 103.688 68.5068Z" fill="#6D6D6D"/>
<path d="M18.0337 67.292C17.974 67.9154 17.4039 68.4168 16.6383 68.2338C16.0003 68.0812 15.4101 67.43 15.4818 66.6818C15.5416 66.0584 16.1117 65.5569 16.8773 65.74C17.5153 65.8925 18.0935 66.6685 18.0337 67.292Z" fill="#6D6D6D"/>
<path d="M38.6939 70.867C38.1999 70.2654 37.3637 70.0617 36.8263 70.4121C36.2888 70.7624 36.2536 71.5342 36.7477 72.1358C37.2417 72.7374 38.0779 72.9411 38.6153 72.5907C39.1528 72.2403 39.188 71.4686 38.6939 70.867Z" fill="#6D6D6D"/>
<path d="M60.0152 76.163C60.0812 75.4744 59.5634 74.7796 58.8587 74.6111C58.154 74.4426 57.5293 74.8643 57.4633 75.5529C57.3973 76.2416 57.915 76.9364 58.6197 77.1049C59.3244 77.2734 59.9492 76.8517 60.0152 76.163Z" fill="#6D6D6D"/>
<path d="M80.7239 79.5862C80.2298 78.9846 79.3936 78.7809 78.8562 79.1313C78.3187 79.4817 78.2835 80.2534 78.7776 80.855C79.2716 81.4566 80.1078 81.6603 80.6453 81.3099C81.1827 80.9596 81.2179 80.1878 80.7239 79.5862Z" fill="#6D6D6D"/>
<path d="M102.011 84.9165C101.951 85.5399 101.381 86.0413 100.615 85.8583C99.9773 85.7058 99.3872 85.0545 99.4589 84.3063C99.5186 83.6829 100.089 83.1815 100.854 83.3645C101.608 83.6722 102.071 84.293 102.011 84.9165Z" fill="#6D6D6D"/>
<path d="M16.3581 83.7015C16.2982 84.3245 15.7276 84.8255 14.9615 84.6425C14.323 84.4899 13.7324 83.839 13.8043 83.0914C13.8641 82.4683 14.4347 81.9673 15.2009 82.1504C15.8393 82.3029 16.4179 83.0785 16.3581 83.7015Z" fill="#6D6D6D"/>
<path d="M37.4091 88.211C37.4752 87.5229 36.9571 86.8284 36.2519 86.6599C35.5467 86.4914 34.9214 86.9127 34.8553 87.6009C34.7892 88.2891 35.3073 88.9835 36.0125 89.152C36.7177 89.3205 37.343 88.8992 37.4091 88.211Z" fill="#6D6D6D"/>
<path d="M58.3395 92.5724C58.4056 91.8842 57.8875 91.1897 57.1823 91.0212C56.4771 90.8528 55.8518 91.274 55.7857 91.9622C55.7196 92.6504 56.2377 93.3448 56.9429 93.5133C57.6481 93.6818 58.2734 93.2605 58.3395 92.5724Z" fill="#6D6D6D"/>
<path d="M79.4047 96.9642C79.4708 96.276 78.9527 95.5816 78.2475 95.4131C77.5423 95.2446 76.917 95.6659 76.8509 96.3541C76.7848 97.0422 77.3029 97.7367 78.0081 97.9052C78.7133 98.0737 79.3386 97.6524 79.4047 96.9642Z" fill="#6D6D6D"/>
<path d="M100.456 101.474C100.396 102.097 99.8255 102.598 99.0594 102.415C98.4209 102.262 97.8303 101.611 97.9022 100.864C97.962 100.241 98.5326 99.7398 99.2988 99.9228C99.9372 100.075 100.4 100.696 100.456 101.474Z" fill="#6D6D6D"/>
</g>
<mask id="mask1_212_1918" style="mask-type:luminance" maskUnits="userSpaceOnUse" x="15" y="22" width="204" height="213">
<path d="M218.426 153.125C223.548 96.1766 182.387 39.0624 126.491 25.5565C70.594 12.0507 21.1288 47.2676 16.007 104.216C10.8851 161.164 52.0461 218.278 107.943 231.784C163.839 245.29 213.304 210.073 218.426 153.125Z" fill="white"/>
</mask>
<g mask="url(#mask1_212_1918)">
<path d="M118.999 20.9573C118.505 20.3554 117.669 20.1517 117.132 20.5023C116.595 20.8528 116.56 21.6248 117.054 22.2267C117.548 22.8285 118.384 23.0322 118.921 22.6817C119.458 22.3312 119.493 21.5591 118.999 20.9573Z" fill="#6D6D6D"/>
<path d="M54.6125 25.0629C54.6786 24.3741 54.1609 23.6792 53.4563 23.5108C52.7517 23.3424 52.127 23.7643 52.061 24.453C51.9949 25.1418 52.5126 25.8367 53.2172 26.0051C53.9218 26.1735 54.5465 25.7516 54.6125 25.0629Z" fill="#6D6D6D"/>
<path d="M75.6778 29.4547C75.7439 28.7659 75.2262 28.071 74.5216 27.9027C73.817 27.7343 73.1923 28.1561 73.1263 28.8449C73.0602 29.5337 73.5779 30.2286 74.2825 30.3969C74.9871 30.5653 75.6118 30.1435 75.6778 29.4547Z" fill="#6D6D6D"/>
<path d="M96.594 33.934C96.66 33.2452 96.1424 32.5503 95.4378 32.3819C94.7332 32.2135 94.1085 32.6354 94.0424 33.3241C93.9764 34.0129 94.494 34.7078 95.1986 34.8762C95.9032 35.0446 96.5279 34.6227 96.594 33.934Z" fill="#6D6D6D"/>
<path d="M117.329 37.4C116.835 36.7984 115.999 36.5948 115.461 36.9453C114.924 37.2957 114.889 38.0675 115.383 38.6691C115.877 39.2706 116.713 39.4742 117.25 39.1237C117.788 38.7733 117.823 38.0015 117.329 37.4Z" fill="#6D6D6D"/>
<path d="M32.0058 37.1111C31.9461 37.7344 31.3758 38.2357 30.61 38.0526C29.9719 37.9001 29.3816 37.2489 29.4533 36.5009C29.5131 35.8776 30.0834 35.3764 30.8491 35.5594C31.4873 35.712 32.0776 36.3631 32.0058 37.1111Z" fill="#6D6D6D"/>
<path d="M52.7342 40.534C52.2402 39.9325 51.4039 39.7289 50.8663 40.0792C50.3288 40.4296 50.2934 41.2012 50.7874 41.8027C51.2814 42.4042 52.1177 42.6078 52.6553 42.2575C53.1928 41.9071 53.2282 41.1355 52.7342 40.534Z" fill="#6D6D6D"/>
<path d="M74.0014 45.8645C74.0675 45.176 73.5496 44.4813 72.8447 44.3128C72.1399 44.1443 71.5149 44.5659 71.4489 45.2544C71.3829 45.9428 71.9008 46.6376 72.6056 46.8061C73.3105 46.9745 73.9354 46.553 74.0014 45.8645Z" fill="#6D6D6D"/>
<path d="M94.7477 49.4199C94.2537 48.8184 93.4174 48.6148 92.8799 48.9652C92.3423 49.3156 92.307 50.0872 92.801 50.6887C93.295 51.2902 94.1312 51.4938 94.6688 51.1434C95.2064 50.7931 95.2417 50.0214 94.7477 49.4199Z" fill="#6D6D6D"/>
<path d="M115.983 54.7354C115.923 55.3587 115.353 55.86 114.587 55.6769C113.949 55.5244 113.359 54.8732 113.43 54.1252C113.49 53.5019 114.06 53.0006 114.826 53.1837C115.592 53.3667 116.043 54.1121 115.983 54.7354Z" fill="#6D6D6D"/>
<path d="M30.3297 53.5205C30.2699 54.1437 29.6994 54.6448 28.9334 54.4618C28.2951 54.3093 27.7046 53.6582 27.7764 52.9105C27.8362 52.2873 28.4067 51.7862 29.1727 51.9692C29.9387 52.1522 30.4015 52.7727 30.3297 53.5205Z" fill="#6D6D6D"/>
<path d="M51.3947 57.9124C51.3348 58.5355 50.7643 59.0366 49.9983 58.8536C49.36 58.7011 48.7695 58.0501 48.8414 57.3023C48.9012 56.6792 49.4717 56.178 50.2377 56.361C50.876 56.5136 51.4665 57.1646 51.3947 57.9124Z" fill="#6D6D6D"/>
<path d="M72.4459 62.4219C72.512 61.7336 71.994 61.039 71.289 60.8706C70.5839 60.7021 69.9587 61.1235 69.8926 61.8118C69.8265 62.5001 70.3445 63.1947 71.0496 63.3631C71.7547 63.5316 72.3798 63.1102 72.4459 62.4219Z" fill="#6D6D6D"/>
<path d="M93.3765 66.7835C93.3166 67.4066 92.7461 67.9077 91.9801 67.7247C91.3418 67.5722 90.7513 66.9212 90.8231 66.1734C90.883 65.5503 91.4535 65.0491 92.2195 65.2321C92.8578 65.3847 93.4483 66.0357 93.3765 66.7835Z" fill="#6D6D6D"/>
<path d="M114.442 71.1753C114.382 71.7984 113.811 72.2996 113.045 72.1166C112.407 71.964 111.816 71.313 111.888 70.5652C111.948 69.9421 112.519 69.441 113.285 69.624C113.923 69.7765 114.501 70.5522 114.442 71.1753Z" fill="#6D6D6D"/>
<path d="M28.7874 69.9607C28.7276 70.584 28.1574 71.0853 27.3917 70.9023C26.7536 70.7497 26.1634 70.0985 26.2351 69.3504C26.2948 68.7271 26.8651 68.2258 27.6307 68.4088C28.2688 68.5614 28.8591 69.2126 28.7874 69.9607Z" fill="#6D6D6D"/>
<path d="M49.3933 73.4194C48.8993 72.8178 48.063 72.6141 47.5255 72.9645C46.988 73.3148 46.9528 74.0865 47.4468 74.6881C47.9408 75.2897 48.777 75.4933 49.3145 75.143C49.8521 74.7926 49.8873 74.0209 49.3933 73.4194Z" fill="#6D6D6D"/>
<path d="M70.769 78.8315C70.835 78.143 70.3171 77.4482 69.6123 77.2797C68.9075 77.1112 68.2827 77.5327 68.2167 78.2213C68.1507 78.9098 68.6685 79.6046 69.3733 79.7731C70.0781 79.9416 70.7029 79.5201 70.769 78.8315Z" fill="#6D6D6D"/>
<path d="M91.5106 82.2421C91.0165 81.6405 90.1803 81.4369 89.6428 81.7872C89.1053 82.1376 89.0701 82.9093 89.5641 83.5109C90.0581 84.1124 90.8943 84.3161 91.4318 83.9657C91.9693 83.6154 92.0046 82.8437 91.5106 82.2421Z" fill="#6D6D6D"/>
<path d="M112.764 87.5849C112.705 88.2083 112.134 88.7096 111.369 88.5265C110.731 88.374 110.14 87.7227 110.212 86.9747C110.272 86.3514 110.842 85.85 111.608 86.0331C112.246 86.1857 112.824 86.9616 112.764 87.5849Z" fill="#6D6D6D"/>
<path d="M27.1112 86.3699C27.0514 86.993 26.4809 87.4942 25.7149 87.3111C25.0766 87.1586 24.4861 86.5076 24.5579 85.7598C24.6177 85.1367 25.1882 84.6355 25.9542 84.8185C26.5925 84.9711 27.183 85.6221 27.1112 86.3699Z" fill="#6D6D6D"/>
<path d="M48.1762 90.7617C48.2423 90.0734 47.7243 89.3789 47.0193 89.2104C46.3142 89.0419 45.689 89.4633 45.6229 90.1517C45.5569 90.84 46.0748 91.5345 46.7799 91.703C47.485 91.8714 48.1101 91.45 48.1762 90.7617Z" fill="#6D6D6D"/>
<path d="M69.0927 95.241C69.1588 94.5527 68.6408 93.8581 67.9358 93.6896C67.2307 93.5212 66.6055 93.9426 66.5395 94.6309C66.4734 95.3192 66.9914 96.0138 67.6964 96.1822C68.4015 96.3507 69.0266 95.9293 69.0927 95.241Z" fill="#6D6D6D"/>
<path d="M90.1579 99.6328C90.224 98.9445 89.706 98.2499 89.001 98.0815C88.2959 97.913 87.6707 98.3344 87.6046 99.0227C87.5385 99.7111 88.0565 100.406 88.7616 100.574C89.4667 100.743 90.0918 100.321 90.1579 99.6328Z" fill="#6D6D6D"/>
<path d="M111.088 103.994C111.028 104.618 110.458 105.119 109.692 104.936C109.054 104.783 108.463 104.132 108.535 103.384C108.595 102.761 109.165 102.26 109.931 102.443C110.697 102.626 111.148 103.371 111.088 103.994Z" fill="#6D6D6D"/>
</g>
<mask id="mask2_212_1918" style="mask-type:luminance" maskUnits="userSpaceOnUse" x="15" y="22" width="204" height="213">
<path d="M218.426 153.125C223.548 96.1766 182.387 39.0624 126.491 25.5565C70.594 12.0507 21.1288 47.2676 16.007 104.216C10.8851 161.164 52.0461 218.278 107.943 231.784C163.839 245.29 213.304 210.073 218.426 153.125Z" fill="white"/>
</mask>
<g mask="url(#mask2_212_1918)">
<path d="M126.726 22.6318C126.232 22.03 125.396 21.8263 124.859 22.1768C124.322 22.5274 124.287 23.2994 124.781 23.9012C125.275 24.5031 126.111 24.7068 126.648 24.3563C127.185 24.0057 127.22 23.2337 126.726 22.6318Z" fill="#6D6D6D"/>
<path d="M125.489 39.9723C125.43 40.5959 124.859 41.0975 124.094 40.9145C123.456 40.7621 122.866 40.1108 122.938 39.3625C122.997 38.7389 123.568 38.2373 124.333 38.4203C124.971 38.5727 125.561 39.2241 125.489 39.9723Z" fill="#6D6D6D"/>
<path d="M123.813 56.3819C123.753 57.0052 123.183 57.5064 122.417 57.3234C121.779 57.1709 121.189 56.5197 121.26 55.7717C121.32 55.1484 121.89 54.6471 122.656 54.8302C123.294 54.9827 123.885 55.6339 123.813 56.3819Z" fill="#6D6D6D"/>
<path d="M122.137 72.7915C122.077 73.4147 121.507 73.9158 120.741 73.7328C120.102 73.5803 119.512 72.9292 119.584 72.1815C119.643 71.5583 120.214 71.0572 120.98 71.2402C121.746 71.4232 122.209 72.0437 122.137 72.7915Z" fill="#6D6D6D"/>
<path d="M120.594 89.2314C120.535 89.8549 119.964 90.3563 119.199 90.1732C118.561 90.0207 117.971 89.3694 118.042 88.6213C118.102 87.9978 118.672 87.4964 119.438 87.6794C120.076 87.832 120.654 88.608 120.594 89.2314Z" fill="#6D6D6D"/>
<path d="M118.919 105.641C118.859 106.264 118.288 106.765 117.522 106.582C116.884 106.429 116.293 105.778 116.365 105.031C116.425 104.408 116.995 103.907 117.761 104.09C118.4 104.242 118.978 105.018 118.919 105.641Z" fill="#6D6D6D"/>
</g>
<mask id="mask3_212_1918" style="mask-type:luminance" maskUnits="userSpaceOnUse" x="15" y="22" width="204" height="213">
<path d="M218.426 153.125C223.548 96.1766 182.387 39.0624 126.491 25.5565C70.594 12.0507 21.1288 47.2676 16.007 104.216C10.8851 161.164 52.0461 218.278 107.943 231.784C163.839 245.29 213.304 210.073 218.426 153.125Z" fill="white"/>
</mask>
<g mask="url(#mask3_212_1918)">
<path d="M136.242 42.6407C136.183 43.2643 135.613 43.7659 134.847 43.583C134.209 43.4305 133.619 42.7792 133.691 42.0309C133.751 41.4073 134.321 40.9057 135.086 41.0887C135.724 41.2411 136.187 41.862 136.242 42.6407Z" fill="#6D6D6D"/>
<path d="M134.566 59.0503C134.506 59.6736 133.936 60.1749 133.17 59.9918C132.532 59.8393 131.942 59.1881 132.014 58.4402C132.073 57.8168 132.644 57.3156 133.409 57.4986C134.048 57.6512 134.638 58.3023 134.566 59.0503Z" fill="#6D6D6D"/>
<path d="M132.89 75.4597C132.83 76.0829 132.26 76.584 131.494 76.401C130.855 76.2485 130.265 75.5974 130.337 74.8497C130.397 74.2265 130.967 73.7254 131.733 73.9084C132.499 74.0914 132.962 74.712 132.89 75.4597Z" fill="#6D6D6D"/>
<path d="M131.348 91.8999C131.288 92.5232 130.718 93.0245 129.952 92.8415C129.314 92.6889 128.724 92.0377 128.795 91.2897C128.855 90.6663 129.425 90.165 130.191 90.348C130.829 90.5006 131.419 91.1518 131.348 91.8999Z" fill="#6D6D6D"/>
<path d="M129.671 108.309C129.612 108.932 129.041 109.433 128.275 109.25C127.637 109.098 127.046 108.447 127.118 107.699C127.178 107.076 127.749 106.575 128.515 106.758C129.153 106.91 129.743 107.561 129.671 108.309Z" fill="#6D6D6D"/>
</g>
<mask id="mask4_212_1918" style="mask-type:luminance" maskUnits="userSpaceOnUse" x="15" y="22" width="204" height="213">
<path d="M218.426 153.125C223.548 96.1766 182.387 39.0624 126.491 25.5565C70.594 12.0507 21.1288 47.2676 16.007 104.216C10.8851 161.164 52.0461 218.278 107.943 231.784C163.839 245.29 213.304 210.073 218.426 153.125Z" fill="white"/>
</mask>
<g mask="url(#mask4_212_1918)">
<path d="M23.1328 194.171C23.0731 194.795 22.5034 195.297 21.7385 195.114C21.101 194.961 20.5114 194.31 20.5831 193.561C20.6429 192.937 21.2126 192.435 21.9775 192.618C22.6149 192.77 23.2045 193.422 23.1328 194.171Z" fill="#6D6D6D"/>
<path d="M44.198 198.563C44.1383 199.187 43.5686 199.689 42.8037 199.506C42.1662 199.353 41.5766 198.702 41.6483 197.953C41.7081 197.329 42.2778 196.827 43.0427 197.01C43.6801 197.162 44.1303 197.908 44.198 198.563Z" fill="#6D6D6D"/>
<path d="M65.1145 203.042C65.0548 203.666 64.4851 204.168 63.7202 203.985C63.0827 203.832 62.4931 203.181 62.5648 202.432C62.6246 201.808 63.1943 201.306 63.9592 201.489C64.7241 201.672 65.1862 202.293 65.1145 203.042Z" fill="#6D6D6D"/>
<path d="M85.8463 206.477C85.3522 205.875 84.5163 205.671 83.9792 206.022C83.442 206.372 83.4072 207.144 83.9013 207.746C84.3954 208.348 85.2313 208.552 85.7684 208.201C86.3056 207.851 86.3404 207.079 85.8463 206.477Z" fill="#6D6D6D"/>
<path d="M21.4571 210.58C21.5232 209.892 21.0055 209.197 20.3009 209.028C19.5963 208.86 18.9716 209.282 18.9055 209.97C18.8394 210.659 19.3571 211.354 20.0617 211.522C20.7663 211.691 21.391 211.269 21.4571 210.58Z" fill="#6D6D6D"/>
<path d="M42.5224 214.972C42.5884 214.283 42.0708 213.589 41.3662 213.42C40.6616 213.252 40.0369 213.673 39.9708 214.362C39.9047 215.051 40.4224 215.746 41.127 215.914C41.8316 216.083 42.4563 215.661 42.5224 214.972Z" fill="#6D6D6D"/>
<path d="M63.5735 219.482C63.6396 218.793 63.122 218.098 62.4174 217.93C61.7128 217.761 61.088 218.183 61.022 218.872C60.9559 219.56 61.4735 220.255 62.1781 220.424C62.8827 220.592 63.5075 220.17 63.5735 219.482Z" fill="#6D6D6D"/>
<path d="M84.1764 222.92C83.6825 222.318 82.8463 222.114 82.3088 222.465C81.7713 222.815 81.7361 223.587 82.2301 224.189C82.7241 224.79 83.5602 224.994 84.0977 224.643C84.6352 224.293 84.6704 223.521 84.1764 222.92Z" fill="#6D6D6D"/>
<path d="M19.5818 226.053C19.0878 225.452 18.2515 225.248 17.7139 225.598C17.1763 225.949 17.1409 226.72 17.6349 227.322C18.1289 227.923 18.9651 228.127 19.5027 227.777C20.0403 227.427 20.0757 226.655 19.5818 226.053Z" fill="#6D6D6D"/>
<path d="M40.8324 231.499C40.8985 230.811 40.3806 230.116 39.6758 229.948C38.9709 229.779 38.3459 230.201 38.2799 230.889C38.2138 231.577 38.7317 232.272 39.4365 232.441C40.1414 232.609 40.7664 232.188 40.8324 231.499Z" fill="#6D6D6D"/>
<path d="M61.5949 234.939C61.101 234.338 60.2647 234.134 59.7271 234.484C59.1895 234.835 59.1541 235.606 59.6481 236.208C60.142 236.809 60.9783 237.013 61.5159 236.663C62.0535 236.313 62.0889 235.541 61.5949 234.939Z" fill="#6D6D6D"/>
</g>
<mask id="mask5_212_1918" style="mask-type:luminance" maskUnits="userSpaceOnUse" x="15" y="22" width="204" height="213">
<path d="M218.426 153.125C223.548 96.1766 182.387 39.0624 126.491 25.5565C70.594 12.0507 21.1288 47.2676 16.007 104.216C10.8851 161.164 52.0461 218.278 107.943 231.784C163.839 245.29 213.304 210.073 218.426 153.125Z" fill="white"/>
</mask>
<g mask="url(#mask5_212_1918)">
<path d="M33.8861 196.839C33.8263 197.463 33.2566 197.965 32.4916 197.782C31.8541 197.63 31.2644 196.978 31.3361 196.229C31.3958 195.605 31.9656 195.103 32.7306 195.286C33.3681 195.439 33.9578 196.09 33.8861 196.839Z" fill="#6D6D6D"/>
<path d="M54.8166 201.201C54.7569 201.825 54.1871 202.326 53.4221 202.144C52.6571 201.961 52.1949 201.34 52.2666 200.591C52.3264 199.967 52.8961 199.465 53.6611 199.648C54.4261 199.831 54.8883 200.452 54.8166 201.201Z" fill="#6D6D6D"/>
<path d="M75.8817 205.593C75.8219 206.216 75.2522 206.718 74.4872 206.535C73.8497 206.383 73.26 205.731 73.3317 204.983C73.3914 204.359 73.9612 203.857 74.7262 204.04C75.3637 204.192 75.9415 204.969 75.8817 205.593Z" fill="#6D6D6D"/>
<path d="M96.6326 209.133C96.1385 208.531 95.3025 208.327 94.7653 208.677C94.2281 209.028 94.1932 209.8 94.6873 210.402C95.1814 211.004 96.0174 211.207 96.5545 210.857C97.0917 210.506 97.1267 209.734 96.6326 209.133Z" fill="#6D6D6D"/>
<path d="M32.2104 213.249C32.2765 212.56 31.7588 211.865 31.0541 211.697C30.3494 211.528 29.7245 211.95 29.6585 212.638C29.5924 213.327 30.1101 214.022 30.8148 214.19C31.5195 214.359 32.1444 213.937 32.2104 213.249Z" fill="#6D6D6D"/>
<path d="M53.2757 217.641C53.3418 216.952 52.8241 216.257 52.1194 216.089C51.4147 215.92 50.7898 216.342 50.7237 217.031C50.6577 217.719 51.1754 218.414 51.8801 218.582C52.5848 218.751 53.2096 218.329 53.2757 217.641Z" fill="#6D6D6D"/>
<path d="M74.192 222.12C74.2581 221.431 73.7403 220.736 73.0356 220.568C72.3309 220.399 71.7061 220.821 71.64 221.51C71.5739 222.198 72.0916 222.893 72.7963 223.061C73.5011 223.23 74.1259 222.808 74.192 222.12Z" fill="#6D6D6D"/>
<path d="M94.9626 225.575C94.4687 224.974 93.6325 224.77 93.0949 225.12C92.5574 225.471 92.522 226.242 93.016 226.844C93.51 227.445 94.3462 227.649 94.8837 227.299C95.4213 226.948 95.4566 226.177 94.9626 225.575Z" fill="#6D6D6D"/>
<path d="M30.3676 228.709C29.8736 228.108 29.0374 227.904 28.4998 228.254C27.9622 228.604 27.9268 229.376 28.4208 229.978C28.9147 230.579 29.7511 230.783 30.2887 230.433C30.8263 230.082 30.8616 229.311 30.3676 228.709Z" fill="#6D6D6D"/>
<path d="M51.5995 234.05C51.6655 233.362 51.1476 232.667 50.4427 232.499C49.7378 232.33 49.1129 232.751 49.0468 233.44C48.9808 234.128 49.4987 234.823 50.2036 234.992C50.9084 235.16 51.5334 234.739 51.5995 234.05Z" fill="#6D6D6D"/>
</g>
<mask id="mask6_212_1918" style="mask-type:luminance" maskUnits="userSpaceOnUse" x="15" y="22" width="204" height="213">
<path d="M218.426 153.125C223.548 96.1766 182.387 39.0624 126.491 25.5565C70.594 12.0507 21.1288 47.2676 16.007 104.216C10.8851 161.164 52.0461 218.278 107.943 231.784C163.839 245.29 213.304 210.073 218.426 153.125Z" fill="white"/>
</mask>
<g mask="url(#mask6_212_1918)">
<path d="M104.359 210.807C103.865 210.205 103.029 210.001 102.492 210.352C101.955 210.702 101.92 211.474 102.414 212.076C102.908 212.678 103.744 212.882 104.281 212.531C104.819 212.181 104.853 211.409 104.359 210.807Z" fill="#6D6D6D"/>
<path d="M125.693 216.11C125.634 216.734 125.064 217.236 124.299 217.053C123.662 216.9 123.072 216.249 123.144 215.5C123.203 214.876 123.773 214.374 124.538 214.557C125.175 214.71 125.765 215.361 125.693 216.11Z" fill="#6D6D6D"/>
<path d="M103.087 228.158C103.027 228.782 102.457 229.283 101.692 229.1C101.054 228.948 100.464 228.296 100.536 227.548C100.595 226.925 101.166 226.423 101.931 226.606C102.569 226.759 103.159 227.41 103.087 228.158Z" fill="#6D6D6D"/>
<path d="M124.018 232.52C124.084 231.831 123.566 231.136 122.861 230.968C122.157 230.799 121.532 231.221 121.466 231.909C121.4 232.598 121.918 233.293 122.622 233.462C123.327 233.63 123.952 233.208 124.018 232.52Z" fill="#6D6D6D"/>
</g>
<mask id="mask7_212_1918" style="mask-type:luminance" maskUnits="userSpaceOnUse" x="15" y="22" width="204" height="213">
<path d="M218.426 153.125C223.548 96.1766 182.387 39.0624 126.491 25.5565C70.594 12.0507 21.1288 47.2676 16.007 104.216C10.8851 161.164 52.0461 218.278 107.943 231.784C163.839 245.29 213.304 210.073 218.426 153.125Z" fill="white"/>
</mask>
<g mask="url(#mask7_212_1918)">
<path d="M115.058 213.359C114.564 212.757 113.728 212.554 113.191 212.904C112.654 213.254 112.619 214.026 113.113 214.628C113.607 215.23 114.443 215.434 114.98 215.083C115.517 214.733 115.552 213.961 115.058 213.359Z" fill="#6D6D6D"/>
<path d="M136.447 218.779C136.387 219.402 135.817 219.904 135.052 219.721C134.415 219.569 133.825 218.917 133.897 218.169C133.956 217.545 134.526 217.043 135.291 217.226C135.929 217.378 136.518 218.03 136.447 218.779Z" fill="#6D6D6D"/>
<path d="M113.855 230.709C113.795 231.333 113.225 231.834 112.459 231.651C111.821 231.498 111.231 230.847 111.303 230.099C111.363 229.476 111.933 228.974 112.698 229.157C113.336 229.31 113.787 230.055 113.855 230.709Z" fill="#6D6D6D"/>
<path d="M134.771 235.188C134.837 234.5 134.32 233.805 133.615 233.636C132.91 233.468 132.285 233.89 132.219 234.578C132.153 235.267 132.671 235.962 133.376 236.13C134.08 236.298 134.705 235.877 134.771 235.188Z" fill="#6D6D6D"/>
</g>
<mask id="mask8_212_1918" style="mask-type:luminance" maskUnits="userSpaceOnUse" x="15" y="22" width="204" height="213">
<path d="M218.426 153.125C223.548 96.1766 182.387 39.0624 126.491 25.5565C70.594 12.0507 21.1288 47.2676 16.007 104.216C10.8851 161.164 52.0461 218.278 107.943 231.784C163.839 245.29 213.304 210.073 218.426 153.125Z" fill="white"/>
</mask>
<g mask="url(#mask8_212_1918)">
<path d="M34.334 100.078C34.2743 100.702 33.7046 101.204 32.9397 101.021C32.3023 100.869 31.7127 100.217 31.7844 99.4682C31.8441 98.8442 32.4138 98.3421 33.1786 98.5249C33.8161 98.6773 34.4057 99.3289 34.334 100.078Z" fill="#6D6D6D"/>
<path d="M55.3991 104.47C55.3394 105.094 54.7697 105.596 54.0048 105.413C53.3674 105.261 52.7778 104.609 52.8494 103.86C52.9092 103.236 53.4788 102.734 54.2437 102.917C54.8811 103.069 55.3313 103.815 55.3991 104.47Z" fill="#6D6D6D"/>
<path d="M76.3157 108.949C76.256 109.573 75.6863 110.075 74.9214 109.892C74.284 109.74 73.6944 109.088 73.7661 108.339C73.8258 107.715 74.3954 107.213 75.1603 107.396C75.9252 107.579 76.3874 108.2 76.3157 108.949Z" fill="#6D6D6D"/>
<path d="M97.0533 112.386C96.5592 111.784 95.7232 111.58 95.1862 111.931C94.6491 112.281 94.6142 113.053 95.1083 113.655C95.6025 114.257 96.4384 114.461 96.9755 114.11C97.5126 113.76 97.5474 112.988 97.0533 112.386Z" fill="#6D6D6D"/>
<path d="M32.6585 116.487C32.7246 115.799 32.2068 115.104 31.5021 114.935C30.7974 114.767 30.1726 115.189 30.1065 115.877C30.0405 116.566 30.5582 117.261 31.2629 117.429C31.9676 117.598 32.5925 117.176 32.6585 116.487Z" fill="#6D6D6D"/>
<path d="M53.7237 120.879C53.7898 120.191 53.272 119.496 52.5673 119.327C51.8626 119.159 51.2378 119.581 51.1717 120.269C51.1056 120.958 51.6234 121.653 52.3281 121.821C53.0328 121.99 53.6577 121.568 53.7237 120.879Z" fill="#6D6D6D"/>
<path d="M74.7747 125.389C74.8408 124.7 74.3231 124.005 73.6183 123.837C72.9136 123.669 72.2888 124.09 72.2227 124.779C72.1567 125.468 72.6744 126.162 73.3791 126.331C74.0839 126.499 74.7087 126.078 74.7747 125.389Z" fill="#6D6D6D"/>
<path d="M95.3838 128.829C94.8898 128.227 94.0536 128.024 93.516 128.374C92.9785 128.724 92.9432 129.496 93.4372 130.098C93.9312 130.699 94.7674 130.903 95.3049 130.552C95.8425 130.202 95.8778 129.43 95.3838 128.829Z" fill="#6D6D6D"/>
<path d="M30.7887 131.962C30.2947 131.361 29.4585 131.157 28.9209 131.507C28.3833 131.858 28.348 132.629 28.842 133.231C29.336 133.832 30.1722 134.036 30.7098 133.686C31.2474 133.335 31.2827 132.564 30.7887 131.962Z" fill="#6D6D6D"/>
<path d="M52.0473 137.289C52.1134 136.6 51.5955 135.906 50.8906 135.737C50.1858 135.569 49.5608 135.99 49.4948 136.679C49.4288 137.367 49.9467 138.062 50.6515 138.23C51.3564 138.399 51.9813 137.977 52.0473 137.289Z" fill="#6D6D6D"/>
<path d="M72.802 140.848C72.308 140.247 71.4718 140.043 70.9342 140.394C70.3966 140.744 70.3613 141.516 70.8553 142.117C71.3493 142.719 72.1855 142.922 72.7231 142.572C73.2607 142.222 73.296 141.45 72.802 140.848Z" fill="#6D6D6D"/>
<path d="M94.0289 146.16C93.9691 146.783 93.3988 147.284 92.6331 147.101C91.9949 146.949 91.4046 146.297 91.4763 145.55C91.5361 144.926 92.1064 144.425 92.8722 144.608C93.6379 144.791 94.0887 145.536 94.0289 146.16Z" fill="#6D6D6D"/>
<path d="M29.4406 149.337C29.3807 149.96 28.8102 150.461 28.0442 150.278C27.4059 150.125 26.8154 149.474 26.8873 148.727C26.9471 148.103 27.5176 147.602 28.2836 147.785C28.9219 147.938 29.5124 148.589 29.4406 149.337Z" fill="#6D6D6D"/>
<path d="M50.4918 153.846C50.5579 153.158 50.0399 152.463 49.3348 152.295C48.6298 152.126 48.0046 152.548 47.9385 153.236C47.8724 153.924 48.3904 154.619 49.0955 154.787C49.8006 154.956 50.4257 154.535 50.4918 153.846Z" fill="#6D6D6D"/>
<path d="M71.422 158.208C71.3622 158.831 70.7917 159.332 70.0257 159.149C69.3874 158.997 68.7969 158.345 68.8687 157.598C68.9285 156.975 69.499 156.473 70.265 156.656C71.031 156.839 71.4938 157.46 71.422 158.208Z" fill="#6D6D6D"/>
<path d="M92.4872 162.6C92.4274 163.223 91.8569 163.724 91.0909 163.541C90.4525 163.388 89.8621 162.737 89.9339 161.99C89.9937 161.366 90.5642 160.865 91.3302 161.048C91.9685 161.201 92.547 161.976 92.4872 162.6Z" fill="#6D6D6D"/>
<path d="M27.4476 164.848C26.9536 164.246 26.1173 164.042 25.5798 164.393C25.0423 164.743 25.0071 165.515 25.5011 166.116C25.9951 166.718 26.8313 166.922 27.3688 166.571C27.9064 166.221 27.9416 165.449 27.4476 164.848Z" fill="#6D6D6D"/>
<path d="M48.8147 170.256C48.8807 169.567 48.3629 168.872 47.6581 168.704C46.9533 168.535 46.3284 168.957 46.2624 169.646C46.1964 170.334 46.7143 171.029 47.4191 171.197C48.1238 171.366 48.7487 170.944 48.8147 170.256Z" fill="#6D6D6D"/>
<path d="M69.5648 173.67C69.0707 173.069 68.2345 172.865 67.697 173.215C67.1595 173.566 67.1243 174.338 67.6183 174.939C68.1123 175.541 68.9485 175.744 69.486 175.394C70.0235 175.044 70.0588 174.272 69.5648 173.67Z" fill="#6D6D6D"/>
<path d="M90.8103 179.009C90.7506 179.633 90.1803 180.134 89.4147 179.951C88.7766 179.798 88.1863 179.147 88.258 178.399C88.3178 177.776 88.888 177.274 89.6537 177.457C90.4194 177.64 90.8701 178.386 90.8103 179.009Z" fill="#6D6D6D"/>
<path d="M26.2222 182.186C26.2882 181.498 25.7703 180.803 25.0652 180.635C24.3601 180.466 23.7349 180.888 23.6688 181.576C23.6028 182.264 24.1207 182.959 24.8258 183.127C25.5309 183.296 26.1561 182.874 26.2222 182.186Z" fill="#6D6D6D"/>
<path d="M47.1383 186.665C47.2044 185.977 46.6864 185.282 45.9813 185.114C45.2763 184.946 44.6511 185.367 44.585 186.055C44.5189 186.744 45.0369 187.438 45.742 187.607C46.4471 187.775 47.0722 187.354 47.1383 186.665Z" fill="#6D6D6D"/>
<path d="M68.2035 191.057C68.2696 190.369 67.7516 189.674 67.0465 189.506C66.3414 189.337 65.7163 189.759 65.6502 190.447C65.5841 191.135 66.1021 191.83 66.8072 191.998C67.5122 192.167 68.1374 191.745 68.2035 191.057Z" fill="#6D6D6D"/>
<path d="M89.2687 195.449C89.2088 196.072 88.6383 196.573 87.8724 196.39C87.234 196.238 86.6436 195.587 86.7154 194.839C86.7752 194.216 87.3457 193.715 88.1117 193.898C88.75 194.05 89.2009 194.795 89.2687 195.449Z" fill="#6D6D6D"/>
</g>
<mask id="mask9_212_1918" style="mask-type:luminance" maskUnits="userSpaceOnUse" x="15" y="22" width="204" height="213">
<path d="M218.426 153.125C223.548 96.1766 182.387 39.0624 126.491 25.5565C70.594 12.0507 21.1288 47.2676 16.007 104.216C10.8851 161.164 52.0461 218.278 107.943 231.784C163.839 245.29 213.304 210.073 218.426 153.125Z" fill="white"/>
</mask>
<g mask="url(#mask9_212_1918)">
<path d="M23.709 97.3329C23.2149 96.7311 22.3789 96.5274 21.8417 96.8779C21.3046 97.2285 21.2697 98.0005 21.7638 98.6023C22.2579 99.204 23.0939 99.4077 23.631 99.0572C24.1682 98.7067 24.2031 97.9347 23.709 97.3329Z" fill="#6D6D6D"/>
<path d="M45.1011 102.629C45.0413 103.253 44.4716 103.755 43.7066 103.572C43.0691 103.419 42.4794 102.768 42.5511 102.019C42.6109 101.395 43.1806 100.893 43.9456 101.076C44.5711 101.353 45.1608 102.005 45.1011 102.629Z" fill="#6D6D6D"/>
<path d="M66.0176 107.108C65.9579 107.732 65.3881 108.234 64.6231 108.051C63.8581 107.868 63.3959 107.247 63.4676 106.498C63.5274 105.874 64.0971 105.372 64.8621 105.555C65.6271 105.738 66.0893 106.359 66.0176 107.108Z" fill="#6D6D6D"/>
<path d="M87.0828 111.5C87.023 112.124 86.4533 112.626 85.6883 112.443C85.0508 112.29 84.4611 111.639 84.5328 110.89C84.5926 110.266 85.1623 109.764 85.9273 109.947C86.5648 110.099 87.1425 110.876 87.0828 111.5Z" fill="#6D6D6D"/>
<path d="M107.839 115.042C107.345 114.44 106.509 114.236 105.972 114.587C105.435 114.937 105.4 115.709 105.894 116.311C106.388 116.913 107.224 117.116 107.761 116.766C108.299 116.415 108.333 115.643 107.839 115.042Z" fill="#6D6D6D"/>
<path d="M22.4951 114.677C22.4353 115.3 21.8651 115.802 21.0996 115.619C20.4616 115.466 19.8714 114.815 19.9432 114.067C20.003 113.443 20.5732 112.942 21.3388 113.125C21.9767 113.277 22.4273 114.023 22.4951 114.677Z" fill="#6D6D6D"/>
<path d="M43.4113 119.156C43.4773 118.467 42.9596 117.772 42.2549 117.604C41.5502 117.435 40.9254 117.857 40.8593 118.546C40.7933 119.234 41.311 119.929 42.0157 120.098C42.7204 120.266 43.3452 119.844 43.4113 119.156Z" fill="#6D6D6D"/>
<path d="M64.4765 123.548C64.5425 122.859 64.0248 122.164 63.3201 121.996C62.6154 121.827 61.9906 122.249 61.9245 122.938C61.8585 123.627 62.3762 124.321 63.0809 124.49C63.7856 124.658 64.4104 124.236 64.4765 123.548Z" fill="#6D6D6D"/>
<path d="M85.4069 127.909C85.4729 127.22 84.9552 126.526 84.2505 126.357C83.5458 126.189 82.921 126.611 82.8549 127.299C82.7889 127.988 83.3066 128.683 84.0113 128.851C84.716 129.019 85.3408 128.598 85.4069 127.909Z" fill="#6D6D6D"/>
<path d="M106.17 131.484C105.676 130.883 104.839 130.679 104.302 131.03C103.764 131.38 103.729 132.152 104.223 132.753C104.717 133.355 105.553 133.558 106.091 133.208C106.628 132.858 106.663 132.086 106.17 131.484Z" fill="#6D6D6D"/>
<path d="M20.8185 131.086C20.7588 131.71 20.1886 132.211 19.4229 132.028C18.7848 131.875 18.1945 131.224 18.2662 130.476C18.326 129.853 18.8962 129.352 19.6619 129.535C20.3 129.687 20.8783 130.463 20.8185 131.086Z" fill="#6D6D6D"/>
<path d="M41.5745 134.618C41.0805 134.017 40.2443 133.813 39.7068 134.163C39.1693 134.514 39.134 135.286 39.6281 135.887C40.1221 136.489 40.9583 136.692 41.4958 136.342C42.0333 135.992 42.0686 135.22 41.5745 134.618Z" fill="#6D6D6D"/>
<path d="M62.8003 139.957C62.8663 139.269 62.3485 138.574 61.6437 138.406C60.9389 138.237 60.314 138.659 60.248 139.347C60.182 140.036 60.6999 140.731 61.4047 140.899C62.1095 141.068 62.7343 140.646 62.8003 139.957Z" fill="#6D6D6D"/>
<path d="M83.5007 143.401C83.0067 142.799 82.1705 142.596 81.633 142.946C81.0954 143.296 81.0602 144.068 81.5542 144.67C82.0482 145.271 82.8845 145.475 83.422 145.124C83.9595 144.774 83.9947 144.002 83.5007 143.401Z" fill="#6D6D6D"/>
<path d="M104.782 148.828C104.722 149.452 104.152 149.953 103.386 149.77C102.748 149.617 102.158 148.966 102.229 148.218C102.289 147.595 102.859 147.093 103.625 147.277C104.391 147.46 104.853 148.08 104.782 148.828Z" fill="#6D6D6D"/>
<path d="M19.1427 147.496C19.0829 148.119 18.5123 148.62 17.7461 148.437C17.1077 148.284 16.5171 147.633 16.5889 146.886C16.6488 146.263 17.2194 145.762 17.9855 145.945C18.7517 146.128 19.2026 146.873 19.1427 147.496Z" fill="#6D6D6D"/>
<path d="M40.1938 152.005C40.1339 152.628 39.5633 153.129 38.7972 152.946C38.1587 152.794 37.5681 152.143 37.64 151.395C37.6998 150.772 38.2704 150.271 39.0366 150.454C39.675 150.607 40.2656 151.258 40.1938 152.005Z" fill="#6D6D6D"/>
<path d="M61.2589 156.397C61.325 155.709 60.807 155.015 60.1017 154.846C59.3965 154.678 58.7713 155.099 58.7051 155.787C58.639 156.475 59.1571 157.17 59.8623 157.338C60.5676 157.507 61.1928 157.085 61.2589 156.397Z" fill="#6D6D6D"/>
<path d="M82.1894 160.759C82.1295 161.382 81.5589 161.883 80.7928 161.7C80.1543 161.547 79.5637 160.896 79.6356 160.148C79.6954 159.525 80.266 159.024 81.0322 159.208C81.6706 159.36 82.2492 160.136 82.1894 160.759Z" fill="#6D6D6D"/>
<path d="M103.241 165.268C103.181 165.891 102.61 166.392 101.844 166.209C101.206 166.057 100.615 165.406 100.687 164.658C100.747 164.035 101.317 163.534 102.083 163.717C102.722 163.87 103.312 164.521 103.241 165.268Z" fill="#6D6D6D"/>
<path d="M17.6001 163.936C17.5404 164.559 16.9701 165.06 16.2045 164.877C15.5664 164.725 14.9761 164.074 15.0478 163.326C15.1076 162.702 15.6778 162.201 16.4435 162.384C17.0816 162.536 17.6599 163.312 17.6001 163.936Z" fill="#6D6D6D"/>
<path d="M38.2335 167.504C37.7394 166.902 36.9032 166.699 36.3657 167.049C35.8282 167.399 35.793 168.171 36.287 168.773C36.781 169.374 37.6172 169.578 38.1547 169.227C38.6922 168.877 38.7275 168.105 38.2335 167.504Z" fill="#6D6D6D"/>
<path d="M59.5815 172.807C59.6475 172.118 59.1296 171.424 58.4248 171.255C57.72 171.087 57.0952 171.508 57.0292 172.197C56.9632 172.885 57.481 173.58 58.1858 173.748C58.8906 173.917 59.5154 173.495 59.5815 172.807Z" fill="#6D6D6D"/>
<path d="M80.3504 176.326C79.8564 175.725 79.0202 175.521 78.4827 175.871C77.9452 176.222 77.9099 176.994 78.4039 177.595C78.898 178.197 79.7342 178.4 80.2717 178.05C80.8092 177.7 80.8444 176.928 80.3504 176.326Z" fill="#6D6D6D"/>
<path d="M101.563 181.678C101.503 182.301 100.933 182.803 100.167 182.62C99.5293 182.467 98.939 181.816 99.0107 181.068C99.0705 180.444 99.6407 179.943 100.406 180.126C101.044 180.279 101.635 180.93 101.563 181.678Z" fill="#6D6D6D"/>
<path d="M15.9242 180.345C15.8644 180.968 15.2937 181.469 14.5276 181.286C13.8892 181.134 13.2986 180.483 13.3704 179.735C13.4303 179.112 14.0009 178.611 14.767 178.794C15.4055 178.947 15.984 179.722 15.9242 180.345Z" fill="#6D6D6D"/>
<path d="M36.9753 184.855C37.0414 184.167 36.5233 183.472 35.8181 183.304C35.1129 183.135 34.4877 183.556 34.4216 184.245C34.3554 184.933 34.8735 185.627 35.5787 185.796C36.2839 185.964 36.9092 185.543 36.9753 184.855Z" fill="#6D6D6D"/>
<path d="M57.9056 189.216C57.9718 188.528 57.4537 187.833 56.7485 187.665C56.0432 187.497 55.418 187.918 55.3519 188.606C55.2858 189.294 55.8039 189.989 56.5091 190.157C57.2143 190.326 57.8395 189.904 57.9056 189.216Z" fill="#6D6D6D"/>
<path d="M78.9569 193.726C79.023 193.037 78.5049 192.343 77.7997 192.175C77.0945 192.006 76.4692 192.427 76.4031 193.116C76.337 193.804 76.8551 194.498 77.5603 194.667C78.2655 194.835 78.8908 194.414 78.9569 193.726Z" fill="#6D6D6D"/>
<path d="M99.8873 198.087C99.8275 198.71 99.2569 199.211 98.4908 199.028C97.8523 198.876 97.2617 198.225 97.3336 197.477C97.3934 196.854 97.964 196.353 98.7301 196.536C99.4963 196.719 99.9592 197.34 99.8873 198.087Z" fill="#6D6D6D"/>
</g>
<mask id="mask10_212_1918" style="mask-type:luminance" maskUnits="userSpaceOnUse" x="15" y="22" width="204" height="213">
<path d="M218.426 153.125C223.548 96.1766 182.387 39.0624 126.491 25.5565C70.594 12.0507 21.1288 47.2676 16.007 104.216C10.8851 161.164 52.0461 218.278 107.943 231.784C163.839 245.29 213.304 210.073 218.426 153.125Z" fill="white"/>
</mask>
<g mask="url(#mask10_212_1918)">
<path d="M115.566 116.716C115.072 116.114 114.236 115.911 113.699 116.261C113.162 116.612 113.127 117.384 113.621 117.985C114.116 118.587 114.952 118.791 115.489 118.44C116.026 118.09 116.061 117.318 115.566 116.716Z" fill="#6D6D6D"/>
<path d="M136.894 122.017C136.835 122.641 136.265 123.143 135.5 122.96C134.863 122.808 134.273 122.156 134.345 121.407C134.405 120.783 134.974 120.281 135.739 120.464C136.377 120.617 136.966 121.268 136.894 122.017Z" fill="#6D6D6D"/>
<path d="M114.302 133.948C114.243 134.571 113.672 135.073 112.907 134.89C112.269 134.737 111.679 134.086 111.75 133.338C111.81 132.714 112.38 132.213 113.146 132.396C113.772 132.673 114.362 133.324 114.302 133.948Z" fill="#6D6D6D"/>
<path d="M135.219 138.427C135.285 137.738 134.767 137.043 134.063 136.875C133.358 136.706 132.733 137.128 132.667 137.817C132.601 138.505 133.119 139.2 133.823 139.369C134.528 139.537 135.153 139.115 135.219 138.427Z" fill="#6D6D6D"/>
<path d="M112.612 150.475C112.552 151.098 111.982 151.599 111.216 151.416C110.578 151.264 109.988 150.613 110.06 149.865C110.119 149.241 110.69 148.74 111.455 148.923C112.093 149.076 112.684 149.727 112.612 150.475Z" fill="#6D6D6D"/>
<path d="M133.345 153.898C132.851 153.296 132.015 153.093 131.477 153.443C130.939 153.793 130.904 154.565 131.398 155.166C131.892 155.768 132.728 155.972 133.266 155.621C133.803 155.271 133.839 154.499 133.345 153.898Z" fill="#6D6D6D"/>
<path d="M110.936 166.884C110.876 167.507 110.306 168.009 109.54 167.826C108.901 167.673 108.311 167.022 108.383 166.274C108.442 165.651 109.013 165.15 109.779 165.333C110.545 165.516 111.008 166.137 110.936 166.884Z" fill="#6D6D6D"/>
<path d="M132.001 171.276C131.941 171.899 131.371 172.4 130.605 172.217C129.966 172.065 129.376 171.414 129.448 170.666C129.507 170.043 130.078 169.542 130.844 169.725C131.482 169.877 132.073 170.528 132.001 171.276Z" fill="#6D6D6D"/>
<path d="M109.393 183.324C109.334 183.948 108.763 184.449 107.998 184.266C107.36 184.113 106.769 183.462 106.841 182.714C106.901 182.091 107.471 181.589 108.237 181.772C108.875 181.925 109.465 182.576 109.393 183.324Z" fill="#6D6D6D"/>
<path d="M130.004 186.783C129.51 186.182 128.673 185.978 128.136 186.328C127.598 186.679 127.563 187.45 128.057 188.052C128.551 188.653 129.387 188.857 129.925 188.507C130.462 188.156 130.498 187.385 130.004 186.783Z" fill="#6D6D6D"/>
<path d="M107.717 199.734C107.658 200.357 107.087 200.858 106.321 200.675C105.683 200.522 105.092 199.871 105.164 199.124C105.224 198.5 105.794 197.999 106.56 198.182C107.199 198.335 107.789 198.986 107.717 199.734Z" fill="#6D6D6D"/>
<path d="M128.782 204.125C128.848 203.437 128.33 202.743 127.625 202.574C126.92 202.406 126.295 202.827 126.229 203.515C126.163 204.204 126.681 204.898 127.386 205.067C128.091 205.235 128.716 204.814 128.782 204.125Z" fill="#6D6D6D"/>
</g>
<mask id="mask11_212_1918" style="mask-type:luminance" maskUnits="userSpaceOnUse" x="15" y="22" width="204" height="213">
<path d="M218.426 153.125C223.548 96.1766 182.387 39.0624 126.491 25.5565C70.594 12.0507 21.1288 47.2676 16.007 104.216C10.8851 161.164 52.0461 218.278 107.943 231.784C163.839 245.29 213.304 210.073 218.426 153.125Z" fill="white"/>
</mask>
<g mask="url(#mask11_212_1918)">
<path d="M126.265 119.268C125.771 118.666 124.935 118.463 124.398 118.813C123.861 119.164 123.826 119.936 124.32 120.538C124.814 121.139 125.65 121.343 126.187 120.993C126.725 120.642 126.759 119.87 126.265 119.268Z" fill="#6D6D6D"/>
<path d="M125.056 136.616C124.996 137.239 124.426 137.741 123.66 137.558C123.022 137.405 122.432 136.754 122.504 136.006C122.563 135.382 123.134 134.881 123.899 135.064C124.537 135.216 124.988 135.962 125.056 136.616Z" fill="#6D6D6D"/>
<path d="M123.379 153.026C123.319 153.649 122.749 154.15 121.983 153.967C121.345 153.815 120.755 153.163 120.827 152.415C120.887 151.792 121.457 151.291 122.222 151.474C122.861 151.626 123.439 152.402 123.379 153.026Z" fill="#6D6D6D"/>
<path d="M121.703 169.435C121.643 170.058 121.073 170.559 120.307 170.376C119.668 170.224 119.078 169.573 119.149 168.825C119.209 168.202 119.78 167.701 120.546 167.884C121.312 168.067 121.763 168.812 121.703 169.435Z" fill="#6D6D6D"/>
<path d="M120.161 185.875C120.101 186.498 119.531 187 118.765 186.817C118.127 186.664 117.537 186.013 117.608 185.265C117.668 184.641 118.238 184.14 119.004 184.323C119.642 184.476 120.22 185.252 120.161 185.875Z" fill="#6D6D6D"/>
<path d="M118.485 202.284C118.425 202.908 117.854 203.409 117.088 203.225C116.45 203.073 115.859 202.422 115.931 201.674C115.991 201.051 116.561 200.55 117.328 200.733C117.966 200.886 118.545 201.661 118.485 202.284Z" fill="#6D6D6D"/>
</g>
</svg>
