<svg width="49" height="241" viewBox="0 0 49 241" fill="none" xmlns="http://www.w3.org/2000/svg">
<g clip-path="url(#clip0_221_17077)">
<mask id="mask0_221_17077" style="mask-type:luminance" maskUnits="userSpaceOnUse" x="-187" y="6" width="229" height="230">
<path d="M-186.311 128.177C-182.66 191.338 -128.693 239.448 -65.7727 235.634C-2.85236 231.819 45.1945 177.525 41.5431 114.365C37.8918 51.2037 -16.0751 3.09378 -78.9954 6.90802C-141.916 10.7223 -189.962 65.0163 -186.311 128.177Z" fill="white"/>
</mask>
<g mask="url(#mask0_221_17077)">
<path d="M21.0285 221.27C21.0736 222.05 21.7398 222.645 22.5166 222.599C23.2934 222.552 23.8865 221.882 23.8414 221.102C23.7963 220.321 23.1301 219.726 22.3533 219.773C21.5765 219.819 20.9834 220.49 21.0285 221.27Z" fill="white"/>
<path d="M-0.892121 222.839C-0.847021 223.619 -0.180721 224.214 0.595979 224.167C1.37278 224.121 1.96598 223.451 1.92088 222.67C1.87578 221.89 1.20948 221.295 0.43268 221.341C-0.34402 221.388 -0.937221 222.058 -0.892121 222.839Z" fill="white"/>
<path d="M41.3804 199.92C41.3395 199.213 41.8612 198.473 42.705 198.423C43.4081 198.381 44.144 198.904 44.1931 199.752C44.234 200.459 43.7123 201.199 42.8685 201.249C42.1653 201.291 41.4294 200.768 41.3804 199.92Z" fill="white"/>
<path d="M20.0258 202.62C20.6157 203.129 21.505 203.061 22.0123 202.467C22.5195 201.873 22.4525 200.978 21.8627 200.468C21.2728 199.959 20.3835 200.027 19.8763 200.621C19.369 201.216 19.436 202.11 20.0258 202.62Z" fill="white"/>
<path d="M-2.31203 203.19C-2.26683 203.971 -1.60063 204.566 -0.823932 204.519C-0.0472319 204.473 0.545868 203.803 0.500668 203.022C0.455568 202.242 -0.210732 201.647 -0.987432 201.693C-1.76413 201.74 -2.35723 202.41 -2.31203 203.19Z" fill="white"/>
<path d="M39.9605 180.272C39.9197 179.565 40.4415 178.825 41.2855 178.775C41.9887 178.732 42.7246 179.256 42.7736 180.103C42.8144 180.81 42.2926 181.55 41.4486 181.601C40.6047 181.651 40.0095 181.12 39.9605 180.272Z" fill="white"/>
<path d="M18.0481 181.982C18.0073 181.275 18.5291 180.535 19.373 180.484C20.0763 180.442 20.8122 180.966 20.8611 181.813C20.9019 182.52 20.3801 183.26 19.5362 183.311C18.8329 183.353 18.0889 182.688 18.0481 181.982Z" fill="white"/>
<path d="M38.3999 160.631C38.359 159.925 38.8806 159.184 39.7244 159.134C40.4276 159.092 41.1635 159.615 41.2125 160.463C41.2534 161.17 40.7318 161.91 39.888 161.96C39.1848 162.002 38.4407 161.338 38.3999 160.631Z" fill="white"/>
<path d="M17.0544 163.157C17.6443 163.667 18.5336 163.598 19.0409 163.004C19.5481 162.41 19.4811 161.515 18.8913 161.006C18.3014 160.496 17.4121 160.565 16.9048 161.159C16.3976 161.753 16.4646 162.648 17.0544 163.157Z" fill="white"/>
<path d="M36.98 140.983C36.9393 140.277 37.4611 139.536 38.305 139.486C39.0083 139.444 39.7442 139.967 39.7931 140.815C39.8339 141.521 39.3121 142.262 38.4682 142.312C37.7649 142.354 37.0208 141.69 36.98 140.983Z" fill="white"/>
<path d="M15.0595 142.552C15.1045 143.332 15.7708 143.927 16.5476 143.881C17.3244 143.834 17.9176 143.164 17.8726 142.384C17.8275 141.603 17.1613 141.008 16.3845 141.055C15.6076 141.101 15.0144 141.771 15.0595 142.552Z" fill="white"/>
</g>
<mask id="mask1_221_17077" style="mask-type:luminance" maskUnits="userSpaceOnUse" x="-187" y="6" width="229" height="230">
<path d="M-186.311 128.177C-182.66 191.338 -128.693 239.448 -65.7727 235.634C-2.85236 231.819 45.1945 177.525 41.5431 114.365C37.8918 51.2037 -16.0751 3.09378 -78.9954 6.90802C-141.916 10.7223 -189.962 65.0163 -186.311 128.177Z" fill="white"/>
</mask>
<g mask="url(#mask1_221_17077)">
<path d="M31.5337 219.945C31.4929 219.238 32.0147 218.498 32.8586 218.448C33.5618 218.406 34.2977 218.929 34.3467 219.776C34.3875 220.483 33.8658 221.223 33.0219 221.274C32.3186 221.316 31.7234 220.784 31.5337 219.945Z" fill="white"/>
<path d="M9.76218 221.647C9.80728 222.427 10.4736 223.022 11.2503 222.975C12.0271 222.929 12.6203 222.259 12.5752 221.478C12.5301 220.698 11.8638 220.103 11.087 220.149C10.3103 220.196 9.71708 220.866 9.76218 221.647Z" fill="white"/>
<path d="M30.1141 200.296C30.0732 199.59 30.5949 198.849 31.4387 198.799C32.1419 198.757 32.8778 199.28 32.9268 200.128C32.9677 200.835 32.4461 201.575 31.6023 201.625C30.8991 201.667 30.1632 201.144 30.1141 200.296Z" fill="white"/>
<path d="M8.72898 203.022C9.31878 203.531 10.2082 203.463 10.7154 202.868C11.2226 202.274 11.1556 201.38 10.5658 200.87C9.97598 200.36 9.08658 200.429 8.57938 201.023C8.07218 201.617 8.13908 202.512 8.72898 203.022Z" fill="white"/>
<path d="M28.6941 180.648C28.6533 179.941 29.1751 179.201 30.019 179.151C30.7223 179.109 31.4582 179.632 31.5071 180.48C31.5479 181.186 31.0261 181.926 30.1822 181.977C29.3383 182.027 28.743 181.496 28.6941 180.648Z" fill="white"/>
<path d="M6.78177 182.358C6.74097 181.651 7.26277 180.911 8.10667 180.861C8.80997 180.819 9.54587 181.342 9.59487 182.19C9.63567 182.896 9.11387 183.636 8.26987 183.687C7.56667 183.729 6.83077 183.206 6.78177 182.358Z" fill="white"/>
<path d="M27.1338 161.007C27.0929 160.301 27.6146 159.561 28.4584 159.51C29.1616 159.468 29.8975 159.992 29.9465 160.839C29.9874 161.546 29.4658 162.286 28.6219 162.337C27.9188 162.379 27.1829 161.855 27.1338 161.007Z" fill="white"/>
<path d="M5.86448 163.651C6.45428 164.161 7.34368 164.092 7.85088 163.498C8.35808 162.904 8.29118 162.009 7.70128 161.5C7.11148 160.99 6.22208 161.059 5.71488 161.653C5.20768 162.247 5.27458 163.142 5.86448 163.651Z" fill="white"/>
<path d="M25.7139 141.359C25.6731 140.653 26.195 139.913 27.0389 139.862C27.7421 139.82 28.4781 140.343 28.527 141.191C28.5678 141.898 28.046 142.638 27.2021 142.688C26.4988 142.73 25.7629 142.207 25.7139 141.359Z" fill="white"/>
<path d="M3.80148 143.069C3.84648 143.85 4.51278 144.445 5.28958 144.398C6.06638 144.352 6.65958 143.681 6.61458 142.901C6.56948 142.121 5.90318 141.526 5.12638 141.572C4.34958 141.619 3.75638 142.289 3.80148 143.069Z" fill="white"/>
</g>
<mask id="mask2_221_17077" style="mask-type:luminance" maskUnits="userSpaceOnUse" x="-187" y="6" width="229" height="230">
<path d="M-186.311 128.177C-182.66 191.338 -128.693 239.448 -65.7727 235.634C-2.85236 231.819 45.1945 177.525 41.5431 114.365C37.8918 51.2037 -16.0751 3.09378 -78.9954 6.90802C-141.916 10.7223 -189.962 65.0163 -186.311 128.177Z" fill="white"/>
</mask>
<g mask="url(#mask2_221_17077)">
<path d="M31.6984 13.8166C32.2883 14.3261 33.1776 14.2574 33.6849 13.6631C34.1921 13.0689 34.1252 12.1742 33.5353 11.6647C32.9455 11.1552 32.0561 11.2239 31.5489 11.8182C31.0417 12.4124 31.1086 13.3071 31.6984 13.8166Z" fill="white"/>
<path d="M9.34183 14.5601C9.30103 13.8537 9.82273 13.1135 10.6665 13.063C11.3697 13.0209 12.1056 13.5439 12.1546 14.3917C12.1955 15.0981 11.6738 15.8383 10.83 15.8888C10.1268 15.9309 9.39093 15.4079 9.34183 14.5601Z" fill="white"/>
</g>
<mask id="mask3_221_17077" style="mask-type:luminance" maskUnits="userSpaceOnUse" x="-187" y="6" width="229" height="230">
<path d="M-186.311 128.177C-182.66 191.338 -128.693 239.448 -65.7727 235.634C-2.85236 231.819 45.1945 177.525 41.5431 114.365C37.8918 51.2037 -16.0751 3.09378 -78.9954 6.90802C-141.916 10.7223 -189.962 65.0163 -186.311 128.177Z" fill="white"/>
</mask>
<g mask="url(#mask3_221_17077)">
<path d="M20.5087 14.3108C21.0985 14.8202 21.9879 14.7515 22.4951 14.1573C23.0024 13.5631 22.9354 12.6683 22.3456 12.1588C21.7557 11.6493 20.8664 11.7181 20.3591 12.3123C19.8519 12.9065 19.9189 13.8013 20.5087 14.3108Z" fill="white"/>
<path d="M-1.92427 14.9366C-1.96517 14.2301 -1.44347 13.49 -0.599573 13.4394C0.103627 13.3973 0.839527 13.9204 0.888527 14.7682C0.929427 15.4746 0.407728 16.2148 -0.436172 16.2653C-1.13937 16.3074 -1.87527 15.7844 -1.92427 14.9366Z" fill="white"/>
</g>
<mask id="mask4_221_17077" style="mask-type:luminance" maskUnits="userSpaceOnUse" x="-187" y="6" width="229" height="230">
<path d="M-186.311 128.177C-182.66 191.338 -128.693 239.448 -65.7727 235.634C-2.85236 231.819 45.1945 177.525 41.5431 114.365C37.8918 51.2037 -16.0751 3.09378 -78.9954 6.90802C-141.916 10.7223 -189.962 65.0163 -186.311 128.177Z" fill="white"/>
</mask>
<g mask="url(#mask4_221_17077)">
<path d="M38.2452 126.996C38.8351 127.505 39.7244 127.437 40.2317 126.842C40.7389 126.248 40.672 125.353 40.0821 124.844C39.4923 124.334 38.603 124.403 38.0957 124.997C37.5885 125.592 37.6554 126.486 38.2452 126.996Z" fill="white"/>
<path d="M15.8951 127.74C15.8542 127.033 16.3759 126.293 17.2198 126.243C17.923 126.201 18.6589 126.724 18.7079 127.571C18.7488 128.278 18.2271 129.018 17.3832 129.068C16.68 129.111 15.9441 128.588 15.8951 127.74Z" fill="white"/>
<path d="M36.2552 106.531C36.2144 105.824 36.7362 105.084 37.5801 105.034C38.2833 104.992 39.0192 105.515 39.0682 106.362C39.109 107.069 38.5873 107.809 37.7434 107.86C37.032 107.76 36.2961 107.237 36.2552 106.531Z" fill="white"/>
<path d="M14.4751 108.091C14.5202 108.871 15.1865 109.466 15.9632 109.42C16.74 109.373 17.3332 108.703 17.2881 107.923C17.243 107.142 16.5767 106.547 15.8 106.594C15.0232 106.64 14.43 107.311 14.4751 108.091Z" fill="white"/>
<path d="M34.8274 86.7408C34.7865 86.0342 35.3082 85.2941 36.152 85.2437C36.8552 85.2017 37.5911 85.7249 37.6401 86.5728C37.681 87.2794 37.1593 88.0196 36.3155 88.07C35.6123 88.112 34.8765 87.5887 34.8274 86.7408Z" fill="white"/>
<path d="M13.4331 89.4641C14.0229 89.9737 14.9123 89.9052 15.4195 89.311C15.9267 88.7169 15.8598 87.8222 15.2699 87.3126C14.6801 86.803 13.7907 86.8715 13.2835 87.4657C12.7763 88.0598 12.8432 88.9545 13.4331 89.4641Z" fill="white"/>
<path d="M33.4073 67.0925C33.3665 66.386 33.8884 65.6458 34.7323 65.5953C35.4355 65.5533 36.1715 66.0765 36.2204 66.9243C36.2612 67.6308 35.7394 68.371 34.8955 68.4214C34.0515 68.4719 33.4563 67.9403 33.4073 67.0925Z" fill="white"/>
<path d="M11.4952 68.8024C11.4544 68.0959 11.9762 67.3557 12.8201 67.3053C13.5234 67.2632 14.2593 67.7864 14.3083 68.6342C14.3491 69.3408 13.8272 70.0809 12.9833 70.1314C12.28 70.1734 11.5441 69.6503 11.4952 68.8024Z" fill="white"/>
<path d="M31.8472 47.4525C31.8063 46.7459 32.328 46.0058 33.1718 45.9554C33.8749 45.9133 34.6108 46.4366 34.6599 47.2845C34.7008 47.991 34.1791 48.7312 33.3353 48.7816C32.6322 48.8236 31.8963 48.3004 31.8472 47.4525Z" fill="white"/>
<path d="M10.5686 50.094C11.1584 50.6036 12.0478 50.5351 12.555 49.9409C13.0622 49.3468 12.9953 48.452 12.4054 47.9424C11.8156 47.4329 10.9262 47.5014 10.419 48.0956C9.91178 48.6897 9.97868 49.5845 10.5686 50.094Z" fill="white"/>
<path d="M30.427 27.8039C30.3862 27.0974 30.908 26.3572 31.7519 26.3068C32.4552 26.2647 33.1911 26.7879 33.24 27.6357C33.2808 28.3422 32.759 29.0824 31.9151 29.1329C31.2118 29.1749 30.4759 28.6517 30.427 27.8039Z" fill="white"/>
<path d="M8.51461 29.5139C8.55971 30.2943 9.22591 30.8893 10.0027 30.8428C10.7796 30.7964 11.3728 30.1261 11.3277 29.3457C11.2826 28.5653 10.6164 27.9703 9.83961 28.0167C9.06271 28.0632 8.46961 28.7335 8.51461 29.5139Z" fill="white"/>
</g>
<mask id="mask5_221_17077" style="mask-type:luminance" maskUnits="userSpaceOnUse" x="-187" y="6" width="229" height="230">
<path d="M-186.311 128.177C-182.66 191.338 -128.693 239.448 -65.7727 235.634C-2.85236 231.819 45.1945 177.525 41.5431 114.365C37.8918 51.2037 -16.0751 3.09378 -78.9954 6.90802C-141.916 10.7223 -189.962 65.0163 -186.311 128.177Z" fill="white"/>
</mask>
<g mask="url(#mask5_221_17077)">
<path d="M27.0556 127.49C27.6454 127.999 28.5348 127.93 29.042 127.336C29.5493 126.742 29.4823 125.847 28.8925 125.338C28.3027 124.828 27.4133 124.897 26.906 125.491C26.3988 126.086 26.4658 126.98 27.0556 127.49Z" fill="white"/>
<path d="M4.637 128.257C4.5962 127.551 5.1179 126.811 5.9617 126.76C6.665 126.718 7.4008 127.241 7.4499 128.089C7.4907 128.795 6.969 129.536 6.1251 129.586C5.4138 129.487 4.6779 128.964 4.637 128.257Z" fill="white"/>
<path d="M24.989 106.907C24.9482 106.201 25.47 105.461 26.3139 105.41C27.0171 105.368 27.753 105.891 27.802 106.739C27.8428 107.445 27.3211 108.186 26.4772 108.236C25.7739 108.278 25.1705 107.605 24.989 106.907Z" fill="white"/>
<path d="M3.2092 108.468C3.2543 109.248 3.9206 109.843 4.6973 109.796C5.4741 109.75 6.0673 109.08 6.0222 108.299C5.9771 107.519 5.3108 106.924 4.534 106.97C3.7573 107.017 3.1641 107.687 3.2092 108.468Z" fill="white"/>
<path d="M23.5694 87.2587C23.5285 86.5521 24.0501 85.8119 24.8939 85.7615C25.5971 85.7195 26.333 86.2427 26.3821 87.0906C26.423 87.7972 25.9013 88.5374 25.0575 88.5878C24.3543 88.6298 23.6103 87.9652 23.5694 87.2587Z" fill="white"/>
<path d="M2.13617 89.8658C2.72607 90.3753 3.61537 90.3068 4.12257 89.7126C4.62987 89.1185 4.56287 88.2238 3.97297 87.7142C3.38317 87.2046 2.49377 87.2732 1.98657 87.8673C1.47937 88.4614 1.54637 89.3562 2.13617 89.8658Z" fill="white"/>
<path d="M22.1494 67.6103C22.1086 66.9037 22.6305 66.1636 23.4744 66.1131C24.1777 66.0711 24.9136 66.5943 24.9625 67.4421C25.0033 68.1487 24.4815 68.8888 23.6376 68.9393C22.7936 68.9897 22.1902 68.3168 22.1494 67.6103Z" fill="white"/>
<path d="M0.228793 69.1789C0.187993 68.4723 0.709792 67.7322 1.55379 67.6817C2.25699 67.6397 2.99289 68.1629 3.04189 69.0107C3.08269 69.7173 2.56079 70.4574 1.71689 70.5079C1.01359 70.5499 0.277693 70.0267 0.228793 69.1789Z" fill="white"/>
<path d="M20.5891 47.9701C20.5483 47.2635 21.0699 46.5233 21.9137 46.4729C22.6169 46.4309 23.3528 46.9542 23.4018 47.8021C23.4427 48.5086 22.9211 49.2488 22.0773 49.2992C21.3741 49.3412 20.63 48.6766 20.5891 47.9701Z" fill="white"/>
<path d="M-0.728328 50.4956C-0.138428 51.0052 0.750872 50.9367 1.25807 50.3425C1.76537 49.7484 1.69837 48.8536 1.10847 48.3441C0.518671 47.8345 -0.370727 47.903 -0.877927 48.4972C-1.38513 49.0913 -1.31813 49.9861 -0.728328 50.4956Z" fill="white"/>
<path d="M19.169 28.3217C19.1282 27.6152 19.65 26.875 20.4939 26.8246C21.1972 26.7825 21.9331 27.3057 21.9821 28.1536C22.0229 28.8601 21.501 29.6003 20.6571 29.6507C19.9538 29.6927 19.2098 29.0282 19.169 28.3217Z" fill="white"/>
<path d="M-2.75175 29.8903C-2.70665 30.6707 -2.04045 31.2657 -1.26365 31.2193C-0.48675 31.1729 0.106451 30.5026 0.0613506 29.7222C0.0163505 28.9417 -0.64995 28.3467 -1.42675 28.3932C-2.20355 28.4396 -2.79675 29.1099 -2.75175 29.8903Z" fill="white"/>
</g>
</g>
<defs>
<clipPath id="clip0_221_17077">
<rect width="74" height="243" fill="white" transform="translate(-25)"/>
</clipPath>
</defs>
</svg>
