<svg width="30" height="30" viewBox="0 0 41 36" fill="none" xmlns="http://www.w3.org/2000/svg">
<path fill-rule="evenodd" clip-rule="evenodd" d="M21.8611 10.6966L26.1526 6.87189C27.4189 5.74332 28.0521 5.17903 28.814 5.17903C29.5759 5.17903 30.209 5.74332 31.4753 6.87189L32.1956 7.51384C33.7587 8.90691 34.5402 9.60345 34.5402 10.5C34.5402 11.3966 33.7587 12.0931 32.1956 13.4862L28.6248 16.6686C25.8551 15.3247 23.5209 13.2515 21.8611 10.6966ZM20.3525 12.0411L7.89411 23.1444C7.41805 23.5687 7.18001 23.7809 7.021 24.0511C6.86199 24.3214 6.79217 24.6325 6.65254 25.2547L5.41569 30.7663C5.34125 31.098 5.30403 31.2639 5.39665 31.3607C5.48926 31.4575 5.6566 31.4277 5.99126 31.3681L5.9913 31.3681L12.552 30.1986L12.552 30.1986C13.1056 30.1 13.3824 30.0506 13.6321 29.9294C13.8817 29.8081 14.0916 29.621 14.5114 29.2469L14.5114 29.2469L27.0241 18.0952C24.3337 16.642 22.0469 14.5588 20.3525 12.0411Z" fill="#1C23C0" fill-opacity="0.99"/>
</svg>
