<svg width="36" height="36" viewBox="0 0 36 36" fill="none" xmlns="http://www.w3.org/2000/svg">
<path d="M4.5 18.8866C4.5 19.1535 4.5 19.2869 4.5841 19.3281C4.66819 19.3692 4.77352 19.2873 4.98418 19.1234L16.7721 9.95502C17.362 9.49625 17.6569 9.26686 18 9.26686C18.3431 9.26686 18.638 9.49625 19.2279 9.95502L31.0158 19.1234C31.2265 19.2873 31.3318 19.3692 31.4159 19.3281C31.5 19.2869 31.5 19.1535 31.5 18.8866V17.4782C31.5 16.9978 31.5 16.7576 31.3983 16.5497C31.2966 16.3418 31.107 16.1944 30.7279 15.8995L19.2279 6.95502C18.638 6.49625 18.3431 6.26686 18 6.26686C17.6569 6.26686 17.362 6.49625 16.7721 6.95502L5.27212 15.8995C4.89295 16.1944 4.70337 16.3418 4.60168 16.5497C4.5 16.7576 4.5 16.9978 4.5 17.4782V18.8866Z" fill="white"/>
<path d="M21.9167 33.5V26C21.9167 24.8954 21.0212 24 19.9167 24H16C14.8954 24 14 24.8954 14 26V33.5" stroke="#F3AF1C" stroke-width="2" stroke-linejoin="round"/>
<path d="M7 19V32C7 32.9428 7 33.4142 7.29289 33.7071C7.58579 34 8.05719 34 9 34H27C27.9428 34 28.4142 34 28.7071 33.7071C29 33.4142 29 32.9428 29 32V19" stroke="white" stroke-width="2"/>
<rect x="24" y="7.5" width="3" height="6" rx="0.5" fill="white"/>
</svg>
