<svg width="84" height="35" viewBox="0 0 84 35" fill="none" xmlns="http://www.w3.org/2000/svg">
<path d="M6.41716 13.1022L8.31952 16.1594L11.7845 17.8379L8.31952 19.5163L6.41716 22.5736L4.5148 19.5163L1.0498 17.8379L4.5148 16.1594L6.41716 13.1022Z" fill="#F3AF1C"/>
<path d="M78.571 13.1022L80.4734 16.1594L83.9383 17.8379L80.4734 19.5163L78.571 22.5736L76.6686 19.5163L73.2036 17.8379L76.6686 16.1594L78.571 13.1022Z" fill="#F3AF1C"/>
<path d="M42.6301 7.76696C41.543 8.62618 40.6372 9.34552 39.8446 10.2047C38.8707 11.2637 38.0554 12.4027 37.4213 13.6415C37.1948 14.1011 36.923 14.241 36.3795 14.241C33.7297 14.221 31.0801 14.241 28.4303 14.221C27.8189 14.221 27.6378 14.3609 27.6378 14.9203C27.6603 17.6578 27.6378 20.3754 27.6603 23.1128C27.683 26.0501 29.7891 27.8884 33.073 27.9284C36.4022 27.9683 38.5536 26.1701 38.6668 23.1927C38.7574 21.0147 38.6442 18.8367 39.3236 16.6988C41.0448 11.3437 46.8878 7.30739 53.1383 7.14753C53.7046 7.12755 53.9083 7.24744 53.8858 7.78695C53.8405 9.42543 53.8631 11.0639 53.8858 12.7024C53.8858 13.0221 53.8858 13.2419 53.3875 13.2419C49.9905 13.2219 46.6613 15.7396 46.0046 19.5161C45.846 20.4753 45.846 21.4344 46.0272 22.3934C46.8199 26.6696 44.9175 29.9666 41.0901 32.3643C35.7454 35.7013 27.5697 34.9819 23.2442 30.9057C20.9115 28.7077 19.9603 26.0101 19.9378 23.0529C19.8925 18.1174 19.915 13.182 19.9378 8.22654C19.9603 4.50996 22.8819 1.67258 26.9356 1.27294C27.5472 1.213 27.683 1.35287 27.683 1.87239C27.6603 3.59082 27.7056 5.30923 27.6603 7.02764C27.6378 7.62709 27.8189 7.82691 28.5209 7.80693C32.9597 7.78695 37.4213 7.78695 41.8828 7.78695H42.6301V7.76696Z" fill="white"/>
<path d="M59.1169 23.3726C56.2859 23.3726 53.4551 23.3526 50.6241 23.3926C49.99 23.3926 49.8316 23.2328 49.8541 22.6932C49.8994 21.3145 49.8994 19.9358 49.8541 18.557C49.8316 17.9775 50.0128 17.8177 50.6694 17.8177C53.8175 17.8576 56.9653 17.8177 60.1361 17.8376C60.7702 17.8376 60.9061 17.7378 60.6343 17.1983C59.9775 15.8995 59.0263 14.8205 57.5994 14.1411C57.0333 13.8814 56.8975 13.5617 56.8975 13.0421C56.92 11.4036 56.9427 9.7652 56.8975 8.12671C56.8747 7.50728 57.0333 7.38739 57.7353 7.54725C63.3067 8.80609 67.451 12.9222 68.3343 18.1375C68.5833 19.656 68.6514 21.1946 68.538 22.7131C68.4928 23.2727 68.2663 23.3726 67.7002 23.3726C64.8239 23.3526 61.9704 23.3726 59.1169 23.3726Z" fill="#F3AF1C"/>
<path d="M48.9033 26.8295C51.1227 28.328 53.5458 28.6477 56.1276 28.0084C57.5317 27.6486 58.6866 26.9893 59.5699 25.9502C59.8417 25.6306 60.136 25.4907 60.589 25.4907C62.7631 25.5107 64.9372 25.5307 67.1341 25.4907C67.8588 25.4707 67.8813 25.6905 67.6776 26.21C65.7752 30.7658 62.0384 33.3834 56.6937 34.2226C53.0703 34.802 49.6052 34.3425 46.3668 32.744C45.8233 32.4841 45.6194 32.3243 46.1176 31.8049C47.4311 30.3462 48.2917 28.6677 48.9033 26.8295Z" fill="#F3AF1C"/>
</svg>
