<svg width="36" height="36" viewBox="0 0 36 36" fill="none" xmlns="http://www.w3.org/2000/svg">
<path d="M27 4.50001V4.50001C28.3978 4.50001 29.0967 4.50001 29.648 4.72837C30.3831 5.03285 30.9672 5.61688 31.2716 6.35196C31.5 6.90328 31.5 7.60219 31.5 9.00001L31.5 12.5C31.5 12.9714 31.5 13.2071 31.3536 13.3536C31.2071 13.5 30.9714 13.5 30.5 13.5L22.5 13.5M27 4.50001V4.50001C25.6022 4.50001 24.9033 4.50001 24.352 4.72837C23.6169 5.03285 23.0328 5.61688 22.7284 6.35196C22.5 6.90328 22.5 7.60219 22.5 9.00001L22.5 13.5M27 4.50001L8.5 4.50001C6.61438 4.50001 5.67157 4.50001 5.08579 5.0858C4.5 5.67158 4.5 6.61439 4.5 8.50001L4.5 31.5L9 30L13.5 31.5L18 30L22.5 31.5L22.5 13.5" stroke="white" stroke-width="2"/>
<path d="M10.5 10.5L16.5 10.5" stroke="#F3AF1C" stroke-width="1.2" stroke-linecap="round"/>
<path d="M12 16.5H10.5" stroke="#F3AF1C" stroke-width="1.2" stroke-linecap="round"/>
<path d="M10.5 22.5L15 22.5" stroke="#F3AF1C" stroke-width="1.2" stroke-linecap="round"/>
</svg>
